<svg version="1.1" viewBox="0.0 0.0 956.5301837270341 743.8005249343832" fill="none" stroke="none" stroke-linecap="square" stroke-miterlimit="10" xmlns:xlink="http://www.w3.org/1999/xlink" xmlns="http://www.w3.org/2000/svg"><clipPath id="p.0"><path d="m0 0l956.5302 0l0 743.80054l-956.5302 0l0 -743.80054z" clip-rule="nonzero"/></clipPath><g clip-path="url(#p.0)"><path fill="#ffffff" d="m0 0l956.5302 0l0 743.80054l-956.5302 0z" fill-rule="evenodd"/><path fill="#ffffff" d="m61.401573 60.535435l837.1969 0l0 563.40155l-837.1969 0z" fill-rule="evenodd"/><path stroke="#666666" stroke-width="8.0" stroke-linejoin="round" stroke-linecap="butt" d="m61.401573 60.535435l837.1969 0l0 563.40155l-837.1969 0z" fill-rule="evenodd"/><path fill="#cfe2f3" d="m140.61154 656.14435l58.598434 -77.63776l58.598434 77.63776z" fill-rule="evenodd"/><path stroke="#000000" stroke-width="1.0" stroke-linejoin="round" stroke-linecap="butt" d="m140.61154 656.14435l58.598434 -77.63776l58.598434 77.63776z" fill-rule="evenodd"/><path fill="#000000" d="m183.79005 636.38434l0 -22.8125l3.453125 0l0 3.203125q1.078125 -1.6875 2.859375 -2.703125q1.78125 -1.015625 4.0625 -1.015625q2.53125 0 4.15625 1.046875q1.625 1.046875 2.28125 2.9375q2.71875 -3.984375 7.046875 -3.984375q3.40625 0 5.21875 1.875q1.828125 1.875 1.828125 5.796875l0 15.65625l-3.84375 0l0 -14.375q0 -2.3125 -0.375 -3.328125q-0.375 -1.03125 -1.359375 -1.65625q-0.984375 -0.625 -2.328125 -0.625q-2.40625 0 -4.0 1.609375q-1.578125 1.59375 -1.578125 5.125l0 13.25l-3.875 0l0 -14.828125q0 -2.578125 -0.953125 -3.859375q-0.9375 -1.296875 -3.078125 -1.296875q-1.640625 0 -3.03125 0.859375q-1.375 0.859375 -2.0 2.515625q-0.625 1.65625 -0.625 4.765625l0 11.84375l-3.859375 0z" fill-rule="nonzero"/><path fill="#cfe2f3" d="m344.15485 656.14435l58.59845 -77.63776l58.59842 77.63776z" fill-rule="evenodd"/><path stroke="#000000" stroke-width="1.0" stroke-linejoin="round" stroke-linecap="butt" d="m344.15485 656.14435l58.59845 -77.63776l58.59842 77.63776z" fill-rule="evenodd"/><path fill="#000000" d="m393.4242 636.38434l0 -22.8125l3.46875 0l0 3.234375q2.515625 -3.75 7.265625 -3.75q2.0625 0 3.796875 0.75q1.734375 0.734375 2.59375 1.9375q0.859375 1.203125 1.203125 2.84375q0.203125 1.078125 0.203125 3.765625l0 14.03125l-3.859375 0l0 -13.875q0 -2.375 -0.453125 -3.53125q-0.453125 -1.171875 -1.609375 -1.875q-1.140625 -0.703125 -2.6875 -0.703125q-2.46875 0 -4.265625 1.578125q-1.796875 1.5625 -1.796875 5.9375l0 12.46875l-3.859375 0z" fill-rule="nonzero"/><path fill="#cfe2f3" d="m421.40027 100.89764l58.59842 -77.637794l58.59842 77.637794z" fill-rule="evenodd"/><path stroke="#000000" stroke-width="1.0" stroke-linejoin="round" stroke-linecap="butt" d="m421.40027 100.89764l58.59842 -77.637794l58.59842 77.637794z" fill-rule="evenodd"/><path fill="#000000" d="m469.85806 81.137634l0 -3.140625l14.53125 -16.671875q-2.484375 0.125 -4.375 0.125l-9.296875 0l0 -3.125l18.65625 0l0 2.546875l-12.359375 14.484375l-2.390625 2.640625q2.609375 -0.1875 4.875 -0.1875l10.5625 0l0 3.328125l-20.203125 0z" fill-rule="nonzero"/><path fill="#e6b8af" d="m223.87665 295.84122l164.40945 0l0 85.25983l-164.40945 0z" fill-rule="evenodd"/><path stroke="#000000" stroke-width="1.0" stroke-linejoin="round" stroke-linecap="butt" d="m223.87665 295.84122l164.40945 0l0 85.25983l-164.40945 0z" fill-rule="evenodd"/><path fill="#000000" d="m297.37665 326.49924l1.1875 -3.6875q4.140625 1.453125 6.015625 2.515625q-0.484375 -4.703125 -0.515625 -6.484375l3.78125 0q-0.078125 2.578125 -0.609375 6.46875q2.6875 -1.359375 6.15625 -2.5l1.1875 3.6875q-3.296875 1.09375 -6.484375 1.46875q1.59375 1.375 4.484375 4.90625l-3.125 2.21875q-1.515625 -2.0625 -3.5625 -5.59375q-1.9375 3.671875 -3.390625 5.59375l-3.078125 -2.21875q3.03125 -3.71875 4.328125 -4.90625q-3.359375 -0.65625 -6.375 -1.46875z" fill-rule="nonzero"/><path fill="#cfe2f3" d="m244.60289 397.82022l23.795273 -32.724426l23.795288 32.724426z" fill-rule="evenodd"/><path stroke="#000000" stroke-width="1.0" stroke-linejoin="round" stroke-linecap="butt" d="m244.60289 397.82022l23.795273 -32.724426l23.795288 32.724426z" fill-rule="evenodd"/><path fill="#cfe2f3" d="m319.9677 397.82022l23.795288 -32.724426l23.795288 32.724426z" fill-rule="evenodd"/><path stroke="#000000" stroke-width="1.0" stroke-linejoin="round" stroke-linecap="butt" d="m319.9677 397.82022l23.795288 -32.724426l23.795288 32.724426z" fill-rule="evenodd"/><path fill="#cfe2f3" d="m282.2853 307.26642l23.795288 -32.724426l23.795258 32.724426z" fill-rule="evenodd"/><path stroke="#000000" stroke-width="1.0" stroke-linejoin="round" stroke-linecap="butt" d="m282.2853 307.26642l23.795288 -32.724426l23.795258 32.724426z" fill-rule="evenodd"/><path fill="#e6b8af" d="m571.7139 298.13123l164.40942 0l0 85.25986l-164.40942 0z" fill-rule="evenodd"/><path stroke="#000000" stroke-width="1.0" stroke-linejoin="round" stroke-linecap="butt" d="m571.7139 298.13123l164.40942 0l0 85.25986l-164.40942 0z" fill-rule="evenodd"/><path fill="#000000" d="m645.2139 328.78928l1.1875 -3.6875q4.140625 1.453125 6.015625 2.515625q-0.484375 -4.703125 -0.515625 -6.484375l3.78125 0q-0.078125 2.578125 -0.609375 6.46875q2.6875 -1.359375 6.15625 -2.5l1.1875 3.6875q-3.296875 1.09375 -6.484375 1.46875q1.59375 1.375 4.484375 4.90625l-3.125 2.21875q-1.515625 -2.0625 -3.5625 -5.59375q-1.9375 3.671875 -3.390625 5.59375l-3.078125 -2.21875q3.03125 -3.71875 4.328125 -4.90625q-3.359375 -0.65625 -6.375 -1.46875z" fill-rule="nonzero"/><path fill="#cfe2f3" d="m592.4402 400.11023l23.795227 -32.724396l23.795288 32.724396z" fill-rule="evenodd"/><path stroke="#000000" stroke-width="1.0" stroke-linejoin="round" stroke-linecap="butt" d="m592.4402 400.11023l23.795227 -32.724396l23.795288 32.724396z" fill-rule="evenodd"/><path fill="#cfe2f3" d="m667.805 400.11023l23.795288 -32.724396l23.795288 32.724396z" fill-rule="evenodd"/><path stroke="#000000" stroke-width="1.0" stroke-linejoin="round" stroke-linecap="butt" d="m667.805 400.11023l23.795288 -32.724396l23.795288 32.724396z" fill-rule="evenodd"/><path fill="#cfe2f3" d="m630.12256 309.55643l23.795288 -32.724396l23.795288 32.724396z" fill-rule="evenodd"/><path stroke="#000000" stroke-width="1.0" stroke-linejoin="round" stroke-linecap="butt" d="m630.12256 309.55643l23.795288 -32.724396l23.795288 32.724396z" fill-rule="evenodd"/><path fill="#f6b26b" d="m396.06036 146.16798l164.40942 0l0 85.25984l-164.40942 0z" fill-rule="evenodd"/><path stroke="#000000" stroke-width="1.0" stroke-linejoin="round" stroke-linecap="butt" d="m396.06036 146.16798l164.40942 0l0 85.25984l-164.40942 0z" fill-rule="evenodd"/><path fill="#000000" d="m476.43307 199.44415l0 -8.640625l-8.5625 0l0 -3.609375l8.5625 0l0 -8.5625l3.65625 0l0 8.5625l8.578125 0l0 3.609375l-8.578125 0l0 8.640625l-3.65625 0z" fill-rule="nonzero"/><path fill="#cfe2f3" d="m416.78662 248.14699l23.795288 -32.72441l23.795258 32.72441z" fill-rule="evenodd"/><path stroke="#000000" stroke-width="1.0" stroke-linejoin="round" stroke-linecap="butt" d="m416.78662 248.14699l23.795288 -32.72441l23.795258 32.72441z" fill-rule="evenodd"/><path fill="#cfe2f3" d="m492.15146 248.14699l23.795258 -32.72441l23.795288 32.72441z" fill-rule="evenodd"/><path stroke="#000000" stroke-width="1.0" stroke-linejoin="round" stroke-linecap="butt" d="m492.15146 248.14699l23.795258 -32.72441l23.795288 32.72441z" fill-rule="evenodd"/><path fill="#cfe2f3" d="m456.20395 157.59317l23.795258 -32.724403l23.795288 32.724403z" fill-rule="evenodd"/><path stroke="#000000" stroke-width="1.0" stroke-linejoin="round" stroke-linecap="butt" d="m456.20395 157.59317l23.795258 -32.724403l23.795288 32.724403z" fill-rule="evenodd"/><path fill="#000000" fill-opacity="0.0" d="m479.9992 124.86877l0 -23.968506" fill-rule="evenodd"/><path stroke="#000000" stroke-width="1.0" stroke-linejoin="round" stroke-linecap="butt" d="m479.9992 124.86877l0 -23.968506" fill-rule="evenodd"/><path fill="#000000" fill-opacity="0.0" d="m306.0806 274.542l0 -13.197388l134.48819 0l0 -13.196304" fill-rule="evenodd"/><path stroke="#000000" stroke-width="1.0" stroke-linejoin="round" stroke-linecap="butt" d="m306.0806 274.542l0 -13.197388l134.48819 0l0 -13.196304" fill-rule="evenodd"/><path fill="#000000" fill-opacity="0.0" d="m653.91785 276.83203l0 -14.342438l-137.98425 0l0 -14.350479" fill-rule="evenodd"/><path stroke="#000000" stroke-width="1.0" stroke-linejoin="round" stroke-linecap="butt" d="m653.91785 276.83203l0 -14.342438l-137.98425 0l0 -14.350479" fill-rule="evenodd"/><path fill="#000000" fill-opacity="0.0" d="m199.20998 578.5066l0 -163.5777l144.56694 0l0 -17.115234" fill-rule="evenodd"/><path stroke="#000000" stroke-width="1.0" stroke-linejoin="round" stroke-linecap="butt" d="m199.20998 578.5066l0 -163.5777l144.56694 0l0 -17.115234" fill-rule="evenodd"/><path fill="#000000" fill-opacity="0.0" d="m402.7533 578.5066l0 -163.57812l288.8504 0l0 -14.815613" fill-rule="evenodd"/><path stroke="#000000" stroke-width="1.0" stroke-linejoin="round" stroke-linecap="butt" d="m402.7533 578.5066l0 -163.57812l288.8504 0l0 -14.815613" fill-rule="evenodd"/><path fill="#000000" fill-opacity="0.0" d="m439.7953 646.07874l117.19684 0l0 96.944885l-117.19684 0z" fill-rule="evenodd"/><path fill="#000000" d="m453.5453 716.51874l0 -45.8125l9.125 0l10.84375 32.4375q1.5 4.53125 2.1875 6.78125q0.78125 -2.5 2.4375 -7.34375l10.96875 -31.875l8.15625 0l0 45.8125l-5.84375 0l0 -38.34375l-13.3125 38.34375l-5.46875 0l-13.25 -39.0l0 39.0l-5.84375 0zm80.78125 -5.40625l0 5.40625l-30.28125 0q-0.0625 -2.03125 0.65625 -3.90625q1.15625 -3.09375 3.703125 -6.09375q2.546875 -3.0 7.359375 -6.9375q7.46875 -6.125 10.09375 -9.703125q2.625 -3.578125 2.625 -6.765625q0 -3.34375 -2.390625 -5.640625q-2.390625 -2.296875 -6.234375 -2.296875q-4.0625 0 -6.5 2.4375q-2.4375 2.4375 -2.46875 6.75l-5.78125 -0.59375q0.59375 -6.46875 4.46875 -9.859375q3.875 -3.390625 10.40625 -3.390625q6.59375 0 10.4375 3.65625q3.84375 3.65625 3.84375 9.0625q0 2.75 -1.125 5.40625q-1.125 2.65625 -3.734375 5.59375q-2.609375 2.9375 -8.671875 8.0625q-5.0625 4.25 -6.5 5.765625q-1.4375 1.515625 -2.375 3.046875l22.46875 0z" fill-rule="nonzero"/><path fill="#b6d7a8" d="m527.1155 521.36743l363.81104 0l0 96.944885l-363.81104 0z" fill-rule="evenodd"/><path stroke="#000000" stroke-width="1.0" stroke-linejoin="round" stroke-linecap="butt" d="m527.1155 521.36743l363.81104 0l0 96.944885l-363.81104 0z" fill-rule="evenodd"/><path fill="#000000" d="m645.7573 597.3211l2.28125 0.578125q-0.71875 2.796875 -2.578125 4.28125q-1.859375 1.46875 -4.546875 1.46875q-2.765625 0 -4.515625 -1.125q-1.734375 -1.140625 -2.640625 -3.28125q-0.90625 -2.15625 -0.90625 -4.609375q0 -2.6875 1.015625 -4.6875q1.03125 -2.0 2.921875 -3.03125q1.890625 -1.03125 4.171875 -1.03125q2.578125 0 4.328125 1.3125q1.765625 1.3125 2.453125 3.6875l-2.234375 0.53125q-0.609375 -1.875 -1.75 -2.734375q-1.125 -0.859375 -2.84375 -0.859375q-1.984375 0 -3.3125 0.953125q-1.328125 0.953125 -1.875 2.546875q-0.53125 1.59375 -0.53125 3.296875q0 2.1875 0.625 3.828125q0.640625 1.640625 1.984375 2.453125q1.359375 0.796875 2.921875 0.796875q1.921875 0 3.234375 -1.09375q1.328125 -1.109375 1.796875 -3.28125zm4.0195312 -0.1875q0 -3.46875 1.921875 -5.125q1.609375 -1.390625 3.921875 -1.390625q2.5625 0 4.1875 1.6875q1.625 1.6875 1.625 4.640625q0 2.40625 -0.71875 3.78125q-0.71875 1.375 -2.09375 2.140625q-1.375 0.765625 -3.0 0.765625q-2.625 0 -4.234375 -1.671875q-1.609375 -1.6875 -1.609375 -4.828125zm2.171875 0q0 2.390625 1.03125 3.578125q1.046875 1.1875 2.640625 1.1875q1.5625 0 2.609375 -1.1875q1.046875 -1.203125 1.046875 -3.65625q0 -2.3125 -1.0625 -3.5q-1.046875 -1.1875 -2.59375 -1.1875q-1.59375 0 -2.640625 1.1875q-1.03125 1.1875 -1.03125 3.578125zm11.957031 6.21875l0 -12.453125l1.90625 0l0 1.78125q1.375 -2.0625 3.953125 -2.0625q1.125 0 2.0625 0.40625q0.953125 0.40625 1.421875 1.0625q0.46875 0.65625 0.65625 1.5625q0.125 0.578125 0.125 2.046875l0 7.65625l-2.109375 0l0 -7.578125q0 -1.28125 -0.25 -1.921875q-0.25 -0.640625 -0.875 -1.015625q-0.625 -0.390625 -1.46875 -0.390625q-1.34375 0 -2.328125 0.859375q-0.984375 0.859375 -0.984375 3.25l0 6.796875l-2.109375 0zm12.503906 -3.71875l2.09375 -0.328125q0.171875 1.25 0.96875 1.921875q0.8125 0.671875 2.25 0.671875q1.453125 0 2.15625 -0.59375q0.703125 -0.59375 0.703125 -1.390625q0 -0.71875 -0.625 -1.125q-0.421875 -0.28125 -2.15625 -0.71875q-2.3125 -0.578125 -3.21875 -1.0q-0.890625 -0.4375 -1.359375 -1.1875q-0.453125 -0.765625 -0.453125 -1.671875q0 -0.828125 0.375 -1.53125q0.390625 -0.71875 1.046875 -1.1875q0.484375 -0.359375 1.328125 -0.609375q0.859375 -0.265625 1.828125 -0.265625q1.46875 0 2.578125 0.421875q1.109375 0.421875 1.625 1.15625q0.53125 0.71875 0.734375 1.921875l-2.0625 0.28125q-0.140625 -0.96875 -0.8125 -1.5q-0.671875 -0.546875 -1.90625 -0.546875q-1.453125 0 -2.078125 0.484375q-0.625 0.484375 -0.625 1.125q0 0.40625 0.265625 0.734375q0.25 0.34375 0.8125 0.5625q0.3125 0.125 1.859375 0.546875q2.234375 0.59375 3.109375 0.984375q0.890625 0.375 1.390625 1.109375q0.515625 0.71875 0.515625 1.796875q0 1.046875 -0.625 1.984375q-0.609375 0.9375 -1.765625 1.453125q-1.15625 0.5 -2.625 0.5q-2.421875 0 -3.703125 -1.0q-1.265625 -1.015625 -1.625 -3.0zm17.453125 1.828125l0.3125 1.859375q-0.890625 0.203125 -1.59375 0.203125q-1.15625 0 -1.796875 -0.359375q-0.625 -0.375 -0.890625 -0.96875q-0.25 -0.59375 -0.25 -2.484375l0 -7.171875l-1.546875 0l0 -1.640625l1.546875 0l0 -3.078125l2.09375 -1.265625l0 4.34375l2.125 0l0 1.640625l-2.125 0l0 7.28125q0 0.90625 0.109375 1.171875q0.125 0.25 0.375 0.40625q0.25 0.140625 0.71875 0.140625q0.34375 0 0.921875 -0.078125zm10.183594 0.359375q-1.171875 0.984375 -2.265625 1.40625q-1.078125 0.40625 -2.3125 0.40625q-2.046875 0 -3.15625 -1.0q-1.09375 -1.0 -1.09375 -2.5625q0 -0.921875 0.40625 -1.671875q0.421875 -0.75 1.09375 -1.203125q0.671875 -0.46875 1.515625 -0.703125q0.625 -0.15625 1.875 -0.3125q2.5625 -0.3125 3.765625 -0.734375q0.015625 -0.421875 0.015625 -0.546875q0 -1.28125 -0.609375 -1.8125q-0.796875 -0.71875 -2.390625 -0.71875q-1.5 0 -2.203125 0.53125q-0.703125 0.515625 -1.046875 1.84375l-2.0625 -0.28125q0.28125 -1.328125 0.921875 -2.140625q0.640625 -0.8125 1.859375 -1.25q1.21875 -0.453125 2.828125 -0.453125q1.59375 0 2.59375 0.375q1.0 0.375 1.46875 0.953125q0.46875 0.5625 0.65625 1.4375q0.09375 0.53125 0.09375 1.9375l0 2.8125q0 2.9375 0.140625 3.71875q0.140625 0.78125 0.53125 1.5l-2.203125 0q-0.328125 -0.65625 -0.421875 -1.53125zm-0.171875 -4.71875q-1.15625 0.46875 -3.453125 0.796875q-1.296875 0.1875 -1.84375 0.421875q-0.53125 0.234375 -0.828125 0.6875q-0.28125 0.453125 -0.28125 1.0q0 0.84375 0.625 1.40625q0.640625 0.5625 1.875 0.5625q1.21875 0 2.171875 -0.53125q0.953125 -0.53125 1.390625 -1.453125q0.34375 -0.71875 0.34375 -2.109375l0 -0.78125zm5.3945312 6.25l0 -12.453125l1.90625 0l0 1.78125q1.375 -2.0625 3.953125 -2.0625q1.125 0 2.0625 0.40625q0.953125 0.40625 1.421875 1.0625q0.46875 0.65625 0.65625 1.5625q0.125 0.578125 0.125 2.046875l0 7.65625l-2.109375 0l0 -7.578125q0 -1.28125 -0.25 -1.921875q-0.25 -0.640625 -0.875 -1.015625q-0.625 -0.390625 -1.46875 -0.390625q-1.34375 0 -2.328125 0.859375q-0.984375 0.859375 -0.984375 3.25l0 6.796875l-2.109375 0zm17.957031 -1.890625l0.3125 1.859375q-0.890625 0.203125 -1.59375 0.203125q-1.15625 0 -1.796875 -0.359375q-0.625 -0.375 -0.890625 -0.96875q-0.25 -0.59375 -0.25 -2.484375l0 -7.171875l-1.546875 0l0 -1.640625l1.546875 0l0 -3.078125l2.09375 -1.265625l0 4.34375l2.125 0l0 1.640625l-2.125 0l0 7.28125q0 0.90625 0.109375 1.171875q0.125 0.25 0.375 0.40625q0.25 0.140625 0.71875 0.140625q0.34375 0 0.921875 -0.078125zm1.2148438 -1.828125l2.09375 -0.328125q0.171875 1.25 0.96875 1.921875q0.8125 0.671875 2.25 0.671875q1.453125 0 2.15625 -0.59375q0.703125 -0.59375 0.703125 -1.390625q0 -0.71875 -0.625 -1.125q-0.421875 -0.28125 -2.15625 -0.71875q-2.3125 -0.578125 -3.21875 -1.0q-0.890625 -0.4375 -1.359375 -1.1875q-0.453125 -0.765625 -0.453125 -1.671875q0 -0.828125 0.375 -1.53125q0.390625 -0.71875 1.046875 -1.1875q0.484375 -0.359375 1.328125 -0.609375q0.859375 -0.265625 1.828125 -0.265625q1.46875 0 2.578125 0.421875q1.109375 0.421875 1.625 1.15625q0.53125 0.71875 0.734375 1.921875l-2.0625 0.28125q-0.140625 -0.96875 -0.8125 -1.5q-0.671875 -0.546875 -1.90625 -0.546875q-1.453125 0 -2.078125 0.484375q-0.625 0.484375 -0.625 1.125q0 0.40625 0.265625 0.734375q0.25 0.34375 0.8125 0.5625q0.3125 0.125 1.859375 0.546875q2.234375 0.59375 3.109375 0.984375q0.890625 0.375 1.390625 1.109375q0.515625 0.71875 0.515625 1.796875q0 1.046875 -0.625 1.984375q-0.609375 0.9375 -1.765625 1.453125q-1.15625 0.5 -2.625 0.5q-2.421875 0 -3.703125 -1.0q-1.265625 -1.015625 -1.625 -3.0zm10.90625 8.484375l0 -1.515625l13.984375 0l0 1.515625l-13.984375 0zm15.488281 -4.765625l0 -17.1875l3.421875 0l4.0625 12.171875q0.5625 1.703125 0.828125 2.546875q0.296875 -0.9375 0.90625 -2.765625l4.125 -11.953125l3.046875 0l0 17.1875l-2.1875 0l0 -14.375l-4.984375 14.375l-2.0625 0l-4.96875 -14.625l0 14.625l-2.1875 0zm30.289062 -2.03125l0 2.03125l-11.34375 0q-0.03125 -0.765625 0.234375 -1.46875q0.4375 -1.15625 1.390625 -2.28125q0.953125 -1.125 2.765625 -2.609375q2.796875 -2.296875 3.78125 -3.625q0.984375 -1.34375 0.984375 -2.546875q0 -1.25 -0.90625 -2.109375q-0.890625 -0.859375 -2.328125 -0.859375q-1.515625 0 -2.4375 0.921875q-0.90625 0.90625 -0.921875 2.515625l-2.171875 -0.21875q0.21875 -2.421875 1.671875 -3.6875q1.453125 -1.28125 3.90625 -1.28125q2.46875 0 3.90625 1.375q1.453125 1.359375 1.453125 3.390625q0 1.03125 -0.421875 2.03125q-0.421875 1.0 -1.40625 2.109375q-0.96875 1.09375 -3.25 3.015625q-1.890625 1.59375 -2.4375 2.15625q-0.53125 0.5625 -0.890625 1.140625l8.421875 0z" fill-rule="nonzero"/><path fill="#cfe2f3" d="m720.12335 571.08136l82.20471 -113.00787l82.20477 113.00787z" fill-rule="evenodd"/><path stroke="#000000" stroke-width="1.0" stroke-linejoin="round" stroke-linecap="butt" d="m720.12335 571.08136l82.20471 -113.00787l82.20477 113.00787z" fill-rule="evenodd"/><path fill="#000000" d="m773.3489 537.6574l0 -10.484375l7.59375 0l0 1.234375l-6.203125 0l0 3.203125l5.796875 0l0 1.234375l-5.796875 0l0 3.578125l6.4375 0l0 1.234375l-7.828125 0zm9.775574 0l0 -10.484375l4.640625 0q1.40625 0 2.140625 0.28125q0.734375 0.28125 1.171875 1.0q0.4375 0.703125 0.4375 1.578125q0 1.109375 -0.734375 1.875q-0.71875 0.765625 -2.234375 0.984375q0.5625 0.25 0.84375 0.515625q0.609375 0.5625 1.15625 1.390625l1.8125 2.859375l-1.734375 0l-1.390625 -2.1875q-0.609375 -0.9375 -1.0 -1.4375q-0.390625 -0.5 -0.703125 -0.703125q-0.3125 -0.203125 -0.640625 -0.28125q-0.234375 -0.046875 -0.765625 -0.046875l-1.609375 0l0 4.65625l-1.390625 0zm1.390625 -5.859375l2.984375 0q0.9375 0 1.46875 -0.1875q0.546875 -0.203125 0.828125 -0.640625q0.28125 -0.4375 0.28125 -0.9375q0 -0.75 -0.546875 -1.21875q-0.53125 -0.484375 -1.703125 -0.484375l-3.3125 0l0 3.46875zm8.02179 5.859375l4.015625 -10.484375l1.5 0l4.296875 10.484375l-1.578125 0l-1.234375 -3.171875l-4.375 0l-1.15625 3.171875l-1.46875 0zm3.015625 -4.3125l3.5625 0l-1.09375 -2.90625q-0.5 -1.3125 -0.75 -2.171875q-0.203125 1.015625 -0.5625 2.0l-1.15625 3.078125zm7.4318237 0.9375l1.3125 -0.109375q0.09375 0.78125 0.421875 1.296875q0.34375 0.5 1.0625 0.8125q0.71875 0.3125 1.609375 0.3125q0.796875 0 1.40625 -0.234375q0.609375 -0.234375 0.90625 -0.640625q0.296875 -0.421875 0.296875 -0.90625q0 -0.5 -0.296875 -0.859375q-0.28125 -0.375 -0.9375 -0.625q-0.421875 -0.171875 -1.875 -0.515625q-1.4375 -0.34375 -2.015625 -0.65625q-0.75 -0.390625 -1.125 -0.96875q-0.359375 -0.59375 -0.359375 -1.3125q0 -0.796875 0.4375 -1.484375q0.453125 -0.6875 1.3125 -1.046875q0.875 -0.359375 1.9375 -0.359375q1.171875 0 2.0625 0.375q0.890625 0.375 1.359375 1.109375q0.484375 0.734375 0.515625 1.65625l-1.328125 0.09375q-0.109375 -1.0 -0.734375 -1.5q-0.609375 -0.515625 -1.8125 -0.515625q-1.265625 0 -1.84375 0.46875q-0.578125 0.46875 -0.578125 1.109375q0 0.5625 0.421875 0.9375q0.390625 0.359375 2.078125 0.75q1.703125 0.375 2.328125 0.65625q0.921875 0.421875 1.359375 1.078125q0.4375 0.640625 0.4375 1.484375q0 0.84375 -0.484375 1.59375q-0.484375 0.734375 -1.390625 1.140625q-0.890625 0.40625 -2.015625 0.40625q-1.421875 0 -2.390625 -0.40625q-0.953125 -0.421875 -1.5 -1.25q-0.546875 -0.828125 -0.578125 -1.890625zm10.275635 3.375l0 -10.484375l7.59375 0l0 1.234375l-6.203125 0l0 3.203125l5.796875 0l0 1.234375l-5.796875 0l0 3.578125l6.4375 0l0 1.234375l-7.828125 0zm9.775574 0l0 -10.484375l4.640625 0q1.40625 0 2.140625 0.28125q0.734375 0.28125 1.171875 1.0q0.4375 0.703125 0.4375 1.578125q0 1.109375 -0.734375 1.875q-0.71875 0.765625 -2.234375 0.984375q0.5625 0.25 0.84375 0.515625q0.609375 0.5625 1.15625 1.390625l1.8125 2.859375l-1.734375 0l-1.390625 -2.1875q-0.609375 -0.9375 -1.0 -1.4375q-0.390625 -0.5 -0.703125 -0.703125q-0.3125 -0.203125 -0.640625 -0.28125q-0.234375 -0.046875 -0.765625 -0.046875l-1.609375 0l0 4.65625l-1.390625 0zm1.390625 -5.859375l2.984375 0q0.9375 0 1.46875 -0.1875q0.546875 -0.203125 0.828125 -0.640625q0.28125 -0.4375 0.28125 -0.9375q0 -0.75 -0.546875 -1.21875q-0.53125 -0.484375 -1.703125 -0.484375l-3.3125 0l0 3.46875z" fill-rule="nonzero"/><path fill="#cfe2f3" d="m547.6982 571.08136l82.20471 -113.00787l82.20471 113.00787z" fill-rule="evenodd"/><path stroke="#000000" stroke-width="1.0" stroke-linejoin="round" stroke-linecap="butt" d="m547.6982 571.08136l82.20471 -113.00787l82.20471 113.00787z" fill-rule="evenodd"/><path fill="#000000" d="m604.55646 537.6574l0 -10.484375l3.96875 0q1.046875 0 1.59375 0.09375q0.765625 0.125 1.28125 0.484375q0.53125 0.359375 0.84375 1.015625q0.328125 0.65625 0.328125 1.4375q0 1.328125 -0.859375 2.265625q-0.84375 0.921875 -3.078125 0.921875l-2.6875 0l0 4.265625l-1.390625 0zm1.390625 -5.5l2.71875 0q1.34375 0 1.90625 -0.5q0.5625 -0.5 0.5625 -1.40625q0 -0.671875 -0.328125 -1.140625q-0.328125 -0.46875 -0.875 -0.609375q-0.359375 -0.09375 -1.296875 -0.09375l-2.6875 0l0 3.75zm8.41626 5.5l0 -10.484375l7.59375 0l0 1.234375l-6.203125 0l0 3.203125l5.796875 0l0 1.234375l-5.796875 0l0 3.578125l6.4375 0l0 1.234375l-7.828125 0zm9.728699 0l0 -10.484375l1.4375 0l5.5 8.234375l0 -8.234375l1.328125 0l0 10.484375l-1.421875 0l-5.5 -8.25l0 8.25l-1.34375 0zm18.08429 -3.671875l1.390625 0.34375q-0.4375 1.703125 -1.578125 2.609375q-1.125 0.890625 -2.765625 0.890625q-1.6875 0 -2.75 -0.6875q-1.0625 -0.6875 -1.625 -2.0q-0.546875 -1.3125 -0.546875 -2.8125q0 -1.640625 0.625 -2.859375q0.625 -1.21875 1.78125 -1.84375q1.15625 -0.640625 2.546875 -0.640625q1.5625 0 2.640625 0.8125q1.078125 0.796875 1.5 2.25l-1.375 0.3125q-0.359375 -1.140625 -1.0625 -1.65625q-0.6875 -0.53125 -1.734375 -0.53125q-1.21875 0 -2.03125 0.578125q-0.8125 0.578125 -1.140625 1.5625q-0.328125 0.96875 -0.328125 2.015625q0 1.328125 0.390625 2.328125q0.390625 1.0 1.21875 1.5q0.828125 0.484375 1.78125 0.484375q1.171875 0 1.96875 -0.671875q0.8125 -0.671875 1.09375 -1.984375zm3.3342896 3.671875l0 -10.484375l1.390625 0l0 10.484375l-1.390625 0zm3.7907104 0l0 -10.484375l1.390625 0l0 9.25l5.15625 0l0 1.234375l-6.546875 0z" fill-rule="nonzero"/><path fill="#000000" fill-opacity="0.0" d="m268.39816 397.82022l0 38.625732l361.5118 0l0 21.62622" fill-rule="evenodd"/><path stroke="#000000" stroke-width="1.0" stroke-linejoin="round" stroke-linecap="butt" d="m268.39816 397.82022l0 38.625732l361.5118 0l0 21.62622" fill-rule="evenodd"/><path fill="#000000" fill-opacity="0.0" d="m616.2354 400.11023l0 25.577454l186.0788 0l0 32.375305" fill-rule="evenodd"/><path stroke="#000000" stroke-width="1.0" stroke-linejoin="round" stroke-linecap="butt" d="m616.2354 400.11023l0 25.577454l186.0788 0l0 32.375305" fill-rule="evenodd"/></g></svg>