<svg version="1.1" viewBox="0.0 0.0 917.4435695538058 442.49343832021" fill="none" stroke="none" stroke-linecap="square" stroke-miterlimit="10" xmlns:xlink="http://www.w3.org/1999/xlink" xmlns="http://www.w3.org/2000/svg"><clipPath id="p.0"><path d="m0 0l917.44354 0l0 442.49344l-917.44354 0l0 -442.49344z" clip-rule="nonzero"/></clipPath><g clip-path="url(#p.0)"><path fill="#ffffff" d="m0 0l917.44354 0l0 442.49344l-917.44354 0z" fill-rule="evenodd"/><path fill="#ffffff" d="m145.8924 273.2861l121.98425 -180.00002l121.98425 180.00002z" fill-rule="evenodd"/><path stroke="#cfe2f3" stroke-width="8.0" stroke-linejoin="round" stroke-linecap="butt" d="m145.8924 273.2861l121.98425 -180.00002l121.98425 180.00002z" fill-rule="evenodd"/><path fill="#ffffff" d="m512.04724 273.2861l121.98425 -180.00002l121.98425 180.00002z" fill-rule="evenodd"/><path stroke="#8e7cc3" stroke-width="8.0" stroke-linejoin="round" stroke-linecap="butt" d="m512.04724 273.2861l121.98425 -180.00002l121.98425 180.00002z" fill-rule="evenodd"/><path fill="#000000" fill-opacity="0.0" d="m214.85301 278.84515l106.04726 0l0 96.944885l-106.04726 0z" fill-rule="evenodd"/><path fill="#000000" d="m228.10301 309.9414l0 -6.46875l5.625 0l0 6.46875l-5.625 0zm0 39.34375l0 -33.1875l5.625 0l0 33.1875l-5.625 0zm14.1875 0l0 -33.1875l5.0625 0l0 4.71875q3.65625 -5.46875 10.562515 -5.46875q3.0 0 5.515625 1.078125q2.515625 1.078125 3.765625 2.828125q1.25 1.75 1.75 4.15625q0.3125 1.5625 0.3125 5.46875l0 20.40625l-5.625 0l0 -20.1875q0 -3.4375 -0.65625 -5.140625q-0.65625 -1.703125 -2.328125 -2.71875q-1.671875 -1.015625 -3.921875 -1.015625q-3.5937653 0 -6.2031403 2.28125q-2.609375 2.28125 -2.609375 8.65625l0 18.125l-5.625 0zm47.875015 -5.03125l0.8125 4.96875q-2.375 0.5 -4.25 0.5q-3.0625 0 -4.75 -0.96875q-1.6875 -0.96875 -2.375 -2.546875q-0.6875 -1.578125 -0.6875 -6.640625l0 -19.09375l-4.125 0l0 -4.375l4.125 0l0 -8.21875l5.59375 -3.375l0 11.59375l5.65625 0l0 4.375l-5.65625 0l0 19.40625q0 2.40625 0.296875 3.09375q0.296875 0.6875 0.96875 1.09375q0.671875 0.40625 1.921875 0.40625q0.9375 0 2.46875 -0.21875z" fill-rule="nonzero"/><path fill="#000000" fill-opacity="0.0" d="m561.1181 278.84515l145.82678 0l0 96.944885l-145.82678 0z" fill-rule="evenodd"/><path fill="#000000" d="m579.52435 349.28516l-5.21875 0l0 -45.8125l5.625 0l0 16.34375q3.5625 -4.46875 9.09375 -4.46875q3.0625 0 5.796875 1.234375q2.734375 1.234375 4.5 3.46875q1.765625 2.234375 2.765625 5.390625q1.0 3.15625 1.0 6.75q0 8.53125 -4.21875 13.1875q-4.21875 4.65625 -10.125 4.65625q-5.875 0 -9.21875 -4.90625l0 4.15625zm-0.0625 -16.84375q0 5.96875 1.625 8.625q2.65625 4.34375 7.1875 4.34375q3.6875 0 6.375 -3.203125q2.6875 -3.203125 2.6875 -9.546875q0 -6.5 -2.578125 -9.59375q-2.578125 -3.09375 -6.234375 -3.09375q-3.6875 0 -6.375 3.203125q-2.6875 3.203125 -2.6875 9.265625zm28.375 0.25q0 -9.21875 5.125 -13.65625q4.28125 -3.6875 10.4375 -3.6875q6.84375 0 11.1875 4.484375q4.34375 4.484375 4.34375 12.390625q0 6.40625 -1.921875 10.078125q-1.921875 3.671875 -5.59375 5.703125q-3.671875 2.03125 -8.015625 2.03125q-6.96875 0 -11.265625 -4.46875q-4.296875 -4.46875 -4.296875 -12.875zm5.78125 0q0 6.375 2.78125 9.546875q2.78125 3.171875 7.0 3.171875q4.1875 0 6.96875 -3.1875q2.78125 -3.1875 2.78125 -9.71875q0 -6.15625 -2.796875 -9.328125q-2.796875 -3.171875 -6.953125 -3.171875q-4.21875 0 -7.0 3.15625q-2.78125 3.15625 -2.78125 9.53125zm29.8125 0q0 -9.21875 5.125 -13.65625q4.28125 -3.6875 10.4375 -3.6875q6.84375 0 11.1875 4.484375q4.34375 4.484375 4.34375 12.390625q0 6.40625 -1.921875 10.078125q-1.921875 3.671875 -5.59375 5.703125q-3.671875 2.03125 -8.015625 2.03125q-6.96875 0 -11.265625 -4.46875q-4.296875 -4.46875 -4.296875 -12.875zm5.78125 0q0 6.375 2.78125 9.546875q2.78125 3.171875 7.0 3.171875q4.1875 0 6.96875 -3.1875q2.78125 -3.1875 2.78125 -9.71875q0 -6.15625 -2.796875 -9.328125q-2.796875 -3.171875 -6.953125 -3.171875q-4.21875 0 -7.0 3.15625q-2.78125 3.15625 -2.78125 9.53125zm31.78125 16.59375l0 -45.8125l5.625 0l0 45.8125l-5.625 0z" fill-rule="nonzero"/></g></svg>