<svg version="1.1" viewBox="0.0 0.0 1020.1181102362204 792.1496062992126" fill="none" stroke="none" stroke-linecap="square" stroke-miterlimit="10" xmlns:xlink="http://www.w3.org/1999/xlink" xmlns="http://www.w3.org/2000/svg"><clipPath id="p.0"><path d="m0 0l1020.1181 0l0 792.1496l-1020.1181 0l0 -792.1496z" clip-rule="nonzero"/></clipPath><g clip-path="url(#p.0)"><path fill="#ffffff" d="m0 0l1020.1181 0l0 792.1496l-1020.1181 0z" fill-rule="evenodd"/><path fill="#ffffff" d="m195.10149 90.874016l661.6343 0l87.78131 87.78129l0 438.8959l0 0l-837.1969 0l0 0l0 -438.8959z" fill-rule="evenodd"/><path stroke="#b7b7b7" stroke-width="8.0" stroke-linejoin="round" stroke-linecap="butt" d="m195.10149 90.874016l661.6343 0l87.78131 87.78129l0 438.8959l0 0l-837.1969 0l0 0l0 -438.8959z" fill-rule="evenodd"/><path fill="#cfe2f3" d="m467.32022 649.5276l58.59842 -77.63782l58.59845 77.63782z" fill-rule="evenodd"/><path stroke="#000000" stroke-width="1.0" stroke-linejoin="round" stroke-linecap="butt" d="m467.32022 649.5276l58.59842 -77.63782l58.59845 77.63782z" fill-rule="evenodd"/><path fill="#000000" d="m516.903 638.2013l-0.46875 -3.96875q1.375 0.375 2.40625 0.375q1.40625 0 2.25 -0.46875q0.84375 -0.46875 1.390625 -1.3125q0.390625 -0.625 1.28125 -3.140625q0.125 -0.34375 0.375 -1.03125l-9.4375 -24.9375l4.546875 0l5.171875 14.40625q1.015625 2.75 1.8125 5.765625q0.71875 -2.90625 1.734375 -5.671875l5.3125 -14.5l4.21875 0l-9.46875 25.3125q-1.515625 4.109375 -2.359375 5.65625q-1.125 2.078125 -2.578125 3.046875q-1.453125 0.984375 -3.46875 0.984375q-1.21875 0 -2.71875 -0.515625z" fill-rule="nonzero"/><path fill="#8e7cc3" d="m708.5486 649.5276l58.59839 -77.63782l58.59845 77.63782z" fill-rule="evenodd"/><path stroke="#000000" stroke-width="1.0" stroke-linejoin="round" stroke-linecap="butt" d="m708.5486 649.5276l58.59839 -77.63782l58.59845 77.63782z" fill-rule="evenodd"/><path fill="#000000" d="m772.7085 626.9551q-2.15625 1.828125 -4.140625 2.578125q-1.984375 0.75 -4.265625 0.75q-3.765625 0 -5.78125 -1.828125q-2.015625 -1.84375 -2.015625 -4.703125q0 -1.671875 0.75 -3.0625q0.765625 -1.390625 2.0 -2.21875q1.25 -0.84375 2.796875 -1.265625q1.125 -0.3125 3.4375 -0.59375q4.671875 -0.546875 6.890625 -1.328125q0.015625 -0.796875 0.015625 -1.0q0 -2.375 -1.09375 -3.34375q-1.484375 -1.296875 -4.40625 -1.296875q-2.71875 0 -4.03125 0.953125q-1.296875 0.953125 -1.921875 3.375l-3.78125 -0.515625q0.515625 -2.421875 1.703125 -3.90625q1.1875 -1.5 3.421875 -2.296875q2.234375 -0.8125 5.171875 -0.8125q2.921875 0 4.75 0.6875q1.828125 0.6875 2.6875 1.734375q0.859375 1.03125 1.203125 2.625q0.1875 0.984375 0.1875 3.5625l0 5.15625q0 5.390625 0.25 6.828125q0.25 1.421875 0.984375 2.734375l-4.046875 0q-0.59375 -1.203125 -0.765625 -2.8125zm-0.328125 -8.640625q-2.109375 0.859375 -6.3125 1.46875q-2.390625 0.34375 -3.375 0.78125q-0.984375 0.421875 -1.53125 1.25q-0.53125 0.8125 -0.53125 1.828125q0 1.546875 1.171875 2.578125q1.171875 1.03125 3.421875 1.03125q2.234375 0 3.96875 -0.96875q1.75 -0.984375 2.5625 -2.6875q0.625 -1.3125 0.625 -3.859375l0 -1.421875z" fill-rule="nonzero"/><path fill="#cfe2f3" d="m343.2874 132.35957l58.59842 -77.63779l58.59842 77.63779z" fill-rule="evenodd"/><path stroke="#000000" stroke-width="1.0" stroke-linejoin="round" stroke-linecap="butt" d="m343.2874 132.35957l58.59842 -77.63779l58.59842 77.63779z" fill-rule="evenodd"/><path fill="#000000" d="m391.7452 112.59958l0 -3.140625l14.53125 -16.671875q-2.484375 0.125 -4.375 0.125l-9.296875 0l0 -3.125l18.65625 0l0 2.546875l-12.359375 14.484375l-2.390625 2.640625q2.609375 -0.1875 4.875 -0.1875l10.5625 0l0 3.328125l-20.203125 0z" fill-rule="nonzero"/><path fill="#cfe2f3" d="m226.08923 649.5276l58.59842 -77.63782l58.59845 77.63782z" fill-rule="evenodd"/><path stroke="#000000" stroke-width="1.0" stroke-linejoin="round" stroke-linecap="butt" d="m226.08923 649.5276l58.59842 -77.63782l58.59845 77.63782z" fill-rule="evenodd"/><path fill="#000000" d="m274.01578 629.7676l8.328125 -11.859375l-7.703125 -10.953125l4.828125 0l3.5 5.34375q0.984375 1.53125 1.59375 2.5625q0.9375 -1.421875 1.734375 -2.515625l3.84375 -5.390625l4.625 0l-7.890625 10.734375l8.484375 12.078125l-4.734375 0l-4.6875 -7.09375l-1.25 -1.90625l-6.0 9.0l-4.671875 0z" fill-rule="nonzero"/><path fill="#000000" fill-opacity="0.0" d="m486.09186 675.80316l79.653564 0l0 116.346436l-79.653564 0z" fill-rule="evenodd"/><path fill="#000000" d="m501.4981 761.60315l0 -57.265625l7.578125 0l0 23.515625l29.765625 0l0 -23.515625l7.578125 0l0 57.265625l-7.578125 0l0 -27.0l-29.765625 0l0 27.0l-7.578125 0z" fill-rule="nonzero"/><path fill="#8e7cc3" d="m591.3504 132.35957l58.59839 -77.63779l58.59845 77.63779z" fill-rule="evenodd"/><path stroke="#000000" stroke-width="1.0" stroke-linejoin="round" stroke-linecap="butt" d="m591.3504 132.35957l58.59839 -77.63779l58.59845 77.63779z" fill-rule="evenodd"/><path fill="#000000" d="m644.1822 112.59958l-3.59375 0l0 -31.5l3.875 0l0 11.234375q2.453125 -3.0625 6.25 -3.0625q2.109375 0 3.984375 0.84375q1.875 0.84375 3.09375 2.390625q1.21875 1.53125 1.90625 3.703125q0.6875 2.171875 0.6875 4.640625q0 5.859375 -2.90625 9.0625q-2.90625 3.203125 -6.953125 3.203125q-4.046875 0 -6.34375 -3.375l0 2.859375zm-0.046875 -11.578125q0 4.09375 1.125 5.921875q1.828125 2.984375 4.9375 2.984375q2.53125 0 4.375 -2.1875q1.859375 -2.203125 1.859375 -6.578125q0 -4.46875 -1.78125 -6.59375q-1.765625 -2.125 -4.28125 -2.125q-2.53125 0 -4.390625 2.203125q-1.84375 2.203125 -1.84375 6.375z" fill-rule="nonzero"/></g></svg>