<svg version="1.1" viewBox="0.0 0.0 967.1154855643044 684.2808398950132" fill="none" stroke="none" stroke-linecap="square" stroke-miterlimit="10" xmlns:xlink="http://www.w3.org/1999/xlink" xmlns="http://www.w3.org/2000/svg"><clipPath id="p.0"><path d="m0 0l967.1155 0l0 684.2808l-967.1155 0l0 -684.2808z" clip-rule="nonzero"/></clipPath><g clip-path="url(#p.0)"><path fill="#ffffff" d="m0 0l967.1155 0l0 684.2808l-967.1155 0z" fill-rule="evenodd"/><path fill="#ffffff" d="m74.58793 97.419945l837.19684 0l0 436.31497l-837.19684 0z" fill-rule="evenodd"/><path stroke="#ffe599" stroke-width="8.0" stroke-linejoin="round" stroke-linecap="butt" d="m74.58793 97.419945l837.19684 0l0 436.31497l-837.19684 0z" fill-rule="evenodd"/><path fill="#ffffff" d="m434.58792 568.0735l58.59842 -77.63779l58.59845 77.63779z" fill-rule="evenodd"/><path stroke="#0b5394" stroke-width="8.0" stroke-linejoin="round" stroke-linecap="butt" d="m434.58792 568.0735l58.59842 -77.63779l58.59845 77.63779z" fill-rule="evenodd"/><path fill="#000000" d="m498.4178 544.86035l0.5625 3.40625q-1.640625 0.34375 -2.921875 0.34375q-2.109375 0 -3.265625 -0.65625q-1.15625 -0.671875 -1.640625 -1.75q-0.46875 -1.09375 -0.46875 -4.578125l0 -13.125l-2.828125 0l0 -3.0l2.828125 0l0 -5.65625l3.84375 -2.3125l0 7.96875l3.890625 0l0 3.0l-3.890625 0l0 13.34375q0 1.65625 0.203125 2.125q0.203125 0.46875 0.65625 0.75q0.46875 0.28125 1.328125 0.28125q0.65625 0 1.703125 -0.140625z" fill-rule="nonzero"/><path fill="#8e7cc3" d="m204.40683 568.0735l58.59842 -77.63779l58.59842 77.63779z" fill-rule="evenodd"/><path stroke="#000000" stroke-width="1.0" stroke-linejoin="round" stroke-linecap="butt" d="m204.40683 568.0735l58.59842 -77.63779l58.59842 77.63779z" fill-rule="evenodd"/><path fill="#000000" d="m257.23865 548.3135l-3.59375 0l0 -31.5l3.875 0l0 11.234375q2.453125 -3.0625 6.25 -3.0625q2.109375 0 3.984375 0.84375q1.875 0.84375 3.09375 2.390625q1.21875 1.53125 1.90625 3.703125q0.6875 2.171875 0.6875 4.640625q0 5.859375 -2.90625 9.0625q-2.90625 3.203125 -6.953125 3.203125q-4.046875 0 -6.34375 -3.375l0 2.859375zm-0.046875 -11.578125q0 4.09375 1.125 5.921875q1.828125 2.984375 4.9375 2.984375q2.53125 0 4.375 -2.1875q1.859375 -2.203125 1.859375 -6.578125q0 -4.46875 -1.78125 -6.59375q-1.765625 -2.125 -4.28125 -2.125q-2.53125 0 -4.390625 2.203125q-1.84375 2.203125 -1.84375 6.375z" fill-rule="nonzero"/><path fill="#ffffff" d="m409.80365 144.45145l80.8504 -107.11812l80.8504 107.11812z" fill-rule="evenodd"/><path stroke="#0b5394" stroke-width="8.0" stroke-linejoin="round" stroke-linecap="butt" d="m409.80365 144.45145l80.8504 -107.11812l80.8504 107.11812z" fill-rule="evenodd"/><path fill="#000000" d="m467.8396 124.691444l0 -22.8125l3.484375 0l0 3.453125q1.328125 -2.421875 2.453125 -3.1875q1.125 -0.78125 2.484375 -0.78125q1.953125 0 3.96875 1.234375l-1.328125 3.59375q-1.421875 -0.84375 -2.828125 -0.84375q-1.28125 0 -2.296875 0.765625q-1.0 0.765625 -1.421875 2.125q-0.65625 2.0625 -0.65625 4.5l0 11.953125l-3.859375 0zm30.308594 -7.34375l4.0 0.484375q-0.9375 3.5 -3.5 5.4375q-2.5625 1.9375 -6.53125 1.9375q-5.0 0 -7.9375 -3.078125q-2.9375 -3.09375 -2.9375 -8.65625q0 -5.75 2.96875 -8.921875q2.96875 -3.1875 7.6875 -3.1875q4.578125 0 7.46875 3.109375q2.90625 3.109375 2.90625 8.765625q0 0.34375 -0.015625 1.03125l-17.015625 0q0.21875 3.765625 2.125 5.765625q1.90625 1.984375 4.765625 1.984375q2.125 0 3.625 -1.109375q1.515625 -1.125 2.390625 -3.5625zm-12.6875 -6.25l12.734375 0q-0.25 -2.890625 -1.453125 -4.328125q-1.859375 -2.234375 -4.796875 -2.234375q-2.671875 0 -4.484375 1.78125q-1.8125 1.78125 -2.0 4.78125zm29.986328 10.140625l0.5625 3.40625q-1.640625 0.34375 -2.921875 0.34375q-2.109375 0 -3.265625 -0.65625q-1.15625 -0.671875 -1.640625 -1.75q-0.46875 -1.09375 -0.46875 -4.578125l0 -13.125l-2.828125 0l0 -3.0l2.828125 0l0 -5.65625l3.84375 -2.3125l0 7.96875l3.890625 0l0 3.0l-3.890625 0l0 13.34375q0 1.65625 0.203125 2.125q0.203125 0.46875 0.65625 0.75q0.46875 0.28125 1.328125 0.28125q0.65625 0 1.703125 -0.140625z" fill-rule="nonzero"/><path fill="#ffffff" d="m659.70605 568.0735l58.59839 -77.63779l58.59845 77.63779z" fill-rule="evenodd"/><path stroke="#0b5394" stroke-width="8.0" stroke-linejoin="round" stroke-linecap="butt" d="m659.70605 568.0735l58.59839 -77.63779l58.59845 77.63779z" fill-rule="evenodd"/><path fill="#000000" d="m716.02026 548.3135l0 -19.8125l-3.421875 0l0 -3.0l3.421875 0l0 -2.4375q0 -2.296875 0.40625 -3.40625q0.5625 -1.515625 1.96875 -2.4375q1.40625 -0.9375 3.9375 -0.9375q1.640625 0 3.609375 0.390625l-0.578125 3.359375q-1.203125 -0.203125 -2.28125 -0.203125q-1.765625 0 -2.5 0.75q-0.71875 0.75 -0.71875 2.8125l0 2.109375l4.453125 0l0 3.0l-4.453125 0l0 19.8125l-3.84375 0z" fill-rule="nonzero"/><path fill="#000000" fill-opacity="0.0" d="m460.2454 580.4829l60.81894 0l0 96.944885l-60.81894 0z" fill-rule="evenodd"/><path fill="#000000" d="m475.21414 650.9229l0 -45.8125l6.0625 0l0 45.8125l-6.0625 0zm17.375 0l0 -28.8125l-4.96875 0l0 -4.375l4.96875 0l0 -3.53125q0 -3.34375 0.59375 -4.96875q0.8125 -2.1875 2.859375 -3.546875q2.046875 -1.359375 5.734375 -1.359375q2.375 0 5.25 0.5625l-0.84375 4.90625q-1.75 -0.3125 -3.3125 -0.3125q-2.5625 0 -3.625 1.09375q-1.0625 1.09375 -1.0625 4.09375l0 3.0625l6.46875 0l0 4.375l-6.46875 0l0 28.8125l-5.59375 0z" fill-rule="nonzero"/></g></svg>