<svg version="1.1" viewBox="0.0 0.0 956.5301837270341 743.8005249343832" fill="none" stroke="none" stroke-linecap="square" stroke-miterlimit="10" xmlns:xlink="http://www.w3.org/1999/xlink" xmlns="http://www.w3.org/2000/svg"><clipPath id="p.0"><path d="m0 0l956.5302 0l0 743.80054l-956.5302 0l0 -743.80054z" clip-rule="nonzero"/></clipPath><g clip-path="url(#p.0)"><path fill="#ffffff" d="m0 0l956.5302 0l0 743.80054l-956.5302 0z" fill-rule="evenodd"/><path fill="#ffffff" d="m61.401573 60.535435l837.1969 0l0 526.6771l-837.1969 0z" fill-rule="evenodd"/><path stroke="#666666" stroke-width="8.0" stroke-linejoin="round" stroke-linecap="butt" d="m61.401573 60.535435l837.1969 0l0 526.6771l-837.1969 0z" fill-rule="evenodd"/><path fill="#cfe2f3" d="m245.35957 616.4619l58.598434 -77.63776l58.59842 77.63776z" fill-rule="evenodd"/><path stroke="#000000" stroke-width="1.0" stroke-linejoin="round" stroke-linecap="butt" d="m245.35957 616.4619l58.598434 -77.63776l58.59842 77.63776z" fill-rule="evenodd"/><path fill="#000000" d="m288.5381 596.70197l0 -22.8125l3.453125 0l0 3.203125q1.078125 -1.6875 2.859375 -2.703125q1.78125 -1.015625 4.0625 -1.015625q2.53125 0 4.15625 1.046875q1.625 1.046875 2.28125 2.9375q2.71875 -3.984375 7.046875 -3.984375q3.40625 0 5.21875 1.875q1.828125 1.875 1.828125 5.796875l0 15.65625l-3.84375 0l0 -14.375q0 -2.3125 -0.375 -3.328125q-0.375 -1.03125 -1.359375 -1.65625q-0.984375 -0.625 -2.328125 -0.625q-2.40625 0 -4.0 1.609375q-1.578125 1.59375 -1.578125 5.125l0 13.25l-3.875 0l0 -14.828125q0 -2.578125 -0.953125 -3.859375q-0.9375 -1.296875 -3.078125 -1.296875q-1.640625 0 -3.03125 0.859375q-1.375 0.859375 -2.0 2.515625q-0.625 1.65625 -0.625 4.765625l0 11.84375l-3.859375 0z" fill-rule="nonzero"/><path fill="#cfe2f3" d="m593.97375 616.4619l58.59845 -77.63776l58.59839 77.63776z" fill-rule="evenodd"/><path stroke="#000000" stroke-width="1.0" stroke-linejoin="round" stroke-linecap="butt" d="m593.97375 616.4619l58.59845 -77.63776l58.59839 77.63776z" fill-rule="evenodd"/><path fill="#000000" d="m643.2431 596.70197l0 -22.8125l3.46875 0l0 3.234375q2.515625 -3.75 7.265625 -3.75q2.0625 0 3.796875 0.75q1.734375 0.734375 2.59375 1.9375q0.859375 1.203125 1.203125 2.84375q0.203125 1.078125 0.203125 3.765625l0 14.03125l-3.859375 0l0 -13.875q0 -2.375 -0.453125 -3.53125q-0.453125 -1.171875 -1.609375 -1.875q-1.140625 -0.703125 -2.6875 -0.703125q-2.46875 0 -4.265625 1.578125q-1.796875 1.5625 -1.796875 5.9375l0 12.46875l-3.859375 0z" fill-rule="nonzero"/><path fill="#cfe2f3" d="m421.40027 100.89764l58.59842 -77.637794l58.59842 77.637794z" fill-rule="evenodd"/><path stroke="#000000" stroke-width="1.0" stroke-linejoin="round" stroke-linecap="butt" d="m421.40027 100.89764l58.59842 -77.637794l58.59842 77.637794z" fill-rule="evenodd"/><path fill="#000000" d="m469.85806 81.137634l0 -3.140625l14.53125 -16.671875q-2.484375 0.125 -4.375 0.125l-9.296875 0l0 -3.125l18.65625 0l0 2.546875l-12.359375 14.484375l-2.390625 2.640625q2.609375 -0.1875 4.875 -0.1875l10.5625 0l0 3.328125l-20.203125 0z" fill-rule="nonzero"/><path fill="#e6b8af" d="m224.27559 340.19684l164.40944 0l0 85.25986l-164.40944 0z" fill-rule="evenodd"/><path stroke="#000000" stroke-width="1.0" stroke-linejoin="round" stroke-linecap="butt" d="m224.27559 340.19684l164.40944 0l0 85.25986l-164.40944 0z" fill-rule="evenodd"/><path fill="#000000" d="m271.66586 397.22678l0 -28.640625l5.703125 0l6.78125 20.28125q0.9375 2.828125 1.359375 4.234375q0.5 -1.5625 1.53125 -4.59375l6.859375 -19.921875l5.09375 0l0 28.640625l-3.65625 0l0 -23.96875l-8.3125 23.96875l-3.421875 0l-8.28125 -24.375l0 24.375l-3.65625 0zm46.585938 0l0 -3.046875q-2.421875 3.515625 -6.578125 3.515625q-1.84375 0 -3.4375 -0.703125q-1.59375 -0.703125 -2.359375 -1.765625q-0.765625 -1.0625 -1.078125 -2.609375q-0.21875 -1.03125 -0.21875 -3.28125l0 -12.859375l3.515625 0l0 11.515625q0 2.75 0.21875 3.703125q0.328125 1.390625 1.390625 2.1875q1.078125 0.78125 2.671875 0.78125q1.578125 0 2.953125 -0.8125q1.390625 -0.8125 1.96875 -2.203125q0.578125 -1.390625 0.578125 -4.046875l0 -11.125l3.515625 0l0 20.75l-3.140625 0zm8.574219 0l0 -28.640625l3.515625 0l0 28.640625l-3.515625 0zm16.636719 -3.140625l0.515625 3.09375q-1.484375 0.328125 -2.65625 0.328125q-1.921875 0 -2.984375 -0.609375q-1.046875 -0.609375 -1.484375 -1.59375q-0.421875 -0.984375 -0.421875 -4.15625l0 -11.9375l-2.578125 0l0 -2.734375l2.578125 0l0 -5.125l3.5 -2.109375l0 7.234375l3.53125 0l0 2.734375l-3.53125 0l0 12.140625q0 1.5 0.1875 1.9375q0.1875 0.421875 0.59375 0.671875q0.421875 0.25 1.203125 0.25q0.59375 0 1.546875 -0.125z" fill-rule="nonzero"/><path fill="#cfe2f3" d="m245.00185 442.17584l23.795273 -32.724396l23.795288 32.724396z" fill-rule="evenodd"/><path stroke="#000000" stroke-width="1.0" stroke-linejoin="round" stroke-linecap="butt" d="m245.00185 442.17584l23.795273 -32.724396l23.795288 32.724396z" fill-rule="evenodd"/><path fill="#cfe2f3" d="m320.36667 442.17584l23.795288 -32.724396l23.795258 32.724396z" fill-rule="evenodd"/><path stroke="#000000" stroke-width="1.0" stroke-linejoin="round" stroke-linecap="butt" d="m320.36667 442.17584l23.795288 -32.724396l23.795258 32.724396z" fill-rule="evenodd"/><path fill="#cfe2f3" d="m282.68427 351.62204l23.795258 -32.724396l23.795288 32.724396z" fill-rule="evenodd"/><path stroke="#000000" stroke-width="1.0" stroke-linejoin="round" stroke-linecap="butt" d="m282.68427 351.62204l23.795258 -32.724396l23.795288 32.724396z" fill-rule="evenodd"/><path fill="#e6b8af" d="m572.11285 342.48688l164.40948 0l0 85.25983l-164.40948 0z" fill-rule="evenodd"/><path stroke="#000000" stroke-width="1.0" stroke-linejoin="round" stroke-linecap="butt" d="m572.11285 342.48688l164.40948 0l0 85.25983l-164.40948 0z" fill-rule="evenodd"/><path fill="#000000" d="m619.5031 399.51678l0 -28.640625l5.703125 0l6.78125 20.28125q0.9375 2.828125 1.359375 4.234375q0.5 -1.5625 1.53125 -4.59375l6.859375 -19.921875l5.09375 0l0 28.640625l-3.65625 0l0 -23.96875l-8.3125 23.96875l-3.421875 0l-8.28125 -24.375l0 24.375l-3.65625 0zm46.585938 0l0 -3.046875q-2.421875 3.515625 -6.578125 3.515625q-1.84375 0 -3.4375 -0.703125q-1.59375 -0.703125 -2.359375 -1.765625q-0.765625 -1.0625 -1.078125 -2.609375q-0.21875 -1.03125 -0.21875 -3.28125l0 -12.859375l3.515625 0l0 11.515625q0 2.75 0.21875 3.703125q0.328125 1.390625 1.390625 2.1875q1.078125 0.78125 2.671875 0.78125q1.578125 0 2.953125 -0.8125q1.390625 -0.8125 1.96875 -2.203125q0.578125 -1.390625 0.578125 -4.046875l0 -11.125l3.515625 0l0 20.75l-3.140625 0zm8.574219 0l0 -28.640625l3.515625 0l0 28.640625l-3.515625 0zm16.636719 -3.140625l0.515625 3.09375q-1.484375 0.328125 -2.65625 0.328125q-1.921875 0 -2.984375 -0.609375q-1.046875 -0.609375 -1.484375 -1.59375q-0.421875 -0.984375 -0.421875 -4.15625l0 -11.9375l-2.578125 0l0 -2.734375l2.578125 0l0 -5.125l3.5 -2.109375l0 7.234375l3.53125 0l0 2.734375l-3.53125 0l0 12.140625q0 1.5 0.1875 1.9375q0.1875 0.421875 0.59375 0.671875q0.421875 0.25 1.203125 0.25q0.59375 0 1.546875 -0.125z" fill-rule="nonzero"/><path fill="#cfe2f3" d="m592.8391 444.46588l23.795288 -32.724426l23.795288 32.724426z" fill-rule="evenodd"/><path stroke="#000000" stroke-width="1.0" stroke-linejoin="round" stroke-linecap="butt" d="m592.8391 444.46588l23.795288 -32.724426l23.795288 32.724426z" fill-rule="evenodd"/><path fill="#cfe2f3" d="m668.2039 444.46588l23.795288 -32.724426l23.795288 32.724426z" fill-rule="evenodd"/><path stroke="#000000" stroke-width="1.0" stroke-linejoin="round" stroke-linecap="butt" d="m668.2039 444.46588l23.795288 -32.724426l23.795288 32.724426z" fill-rule="evenodd"/><path fill="#cfe2f3" d="m630.52155 353.91208l23.795288 -32.724426l23.795227 32.724426z" fill-rule="evenodd"/><path stroke="#000000" stroke-width="1.0" stroke-linejoin="round" stroke-linecap="butt" d="m630.52155 353.91208l23.795288 -32.724426l23.795227 32.724426z" fill-rule="evenodd"/><path fill="#f6b26b" d="m397.7953 154.13387l164.40942 0l0 85.25984l-164.40942 0z" fill-rule="evenodd"/><path stroke="#000000" stroke-width="1.0" stroke-linejoin="round" stroke-linecap="butt" d="m397.7953 154.13387l164.40942 0l0 85.25984l-164.40942 0z" fill-rule="evenodd"/><path fill="#000000" d="m444.35156 211.16377l11.0 -28.640625l4.078125 0l11.71875 28.640625l-4.3125 0l-3.34375 -8.671875l-11.96875 0l-3.140625 8.671875l-4.03125 0zm8.265625 -11.765625l9.703125 0l-2.984375 -7.921875q-1.359375 -3.609375 -2.03125 -5.9375q-0.546875 2.75 -1.546875 5.46875l-3.140625 8.390625zm34.570312 11.765625l0 -2.625q-1.96875 3.09375 -5.796875 3.09375q-2.484375 0 -4.5625 -1.359375q-2.078125 -1.375 -3.21875 -3.828125q-1.140625 -2.453125 -1.140625 -5.640625q0 -3.09375 1.03125 -5.625q1.03125 -2.53125 3.09375 -3.875q2.078125 -1.359375 4.640625 -1.359375q1.875 0 3.328125 0.796875q1.46875 0.796875 2.390625 2.0625l0 -10.28125l3.5 0l0 28.640625l-3.265625 0zm-11.109375 -10.359375q0 3.984375 1.671875 5.96875q1.6875 1.96875 3.96875 1.96875q2.3125 0 3.921875 -1.875q1.609375 -1.890625 1.609375 -5.765625q0 -4.25 -1.640625 -6.234375q-1.640625 -2.0 -4.046875 -2.0q-2.34375 0 -3.921875 1.921875q-1.5625 1.90625 -1.5625 6.015625zm33.35547 10.359375l0 -2.625q-1.96875 3.09375 -5.796875 3.09375q-2.484375 0 -4.5625 -1.359375q-2.078125 -1.375 -3.21875 -3.828125q-1.140625 -2.453125 -1.140625 -5.640625q0 -3.09375 1.03125 -5.625q1.03125 -2.53125 3.09375 -3.875q2.078125 -1.359375 4.640625 -1.359375q1.875 0 3.328125 0.796875q1.46875 0.796875 2.390625 2.0625l0 -10.28125l3.5 0l0 28.640625l-3.265625 0zm-11.109375 -10.359375q0 3.984375 1.671875 5.96875q1.6875 1.96875 3.96875 1.96875q2.3125 0 3.921875 -1.875q1.609375 -1.890625 1.609375 -5.765625q0 -4.25 -1.640625 -6.234375q-1.640625 -2.0 -4.046875 -2.0q-2.34375 0 -3.921875 1.921875q-1.5625 1.90625 -1.5625 6.015625z" fill-rule="nonzero"/><path fill="#cfe2f3" d="m418.52155 256.11285l23.795258 -32.724396l23.795288 32.724396z" fill-rule="evenodd"/><path stroke="#000000" stroke-width="1.0" stroke-linejoin="round" stroke-linecap="butt" d="m418.52155 256.11285l23.795258 -32.724396l23.795288 32.724396z" fill-rule="evenodd"/><path fill="#cfe2f3" d="m493.88635 256.11285l23.795288 -32.724396l23.795288 32.724396z" fill-rule="evenodd"/><path stroke="#000000" stroke-width="1.0" stroke-linejoin="round" stroke-linecap="butt" d="m493.88635 256.11285l23.795288 -32.724396l23.795288 32.724396z" fill-rule="evenodd"/><path fill="#cfe2f3" d="m456.20395 165.55905l23.795258 -32.72441l23.795288 32.72441z" fill-rule="evenodd"/><path stroke="#000000" stroke-width="1.0" stroke-linejoin="round" stroke-linecap="butt" d="m456.20395 165.55905l23.795258 -32.72441l23.795288 32.72441z" fill-rule="evenodd"/><path fill="#000000" fill-opacity="0.0" d="m479.9992 132.83464l0 -31.937004" fill-rule="evenodd"/><path stroke="#000000" stroke-width="1.0" stroke-linejoin="round" stroke-linecap="butt" d="m479.9992 132.83464l0 -31.937004" fill-rule="evenodd"/><path fill="#000000" fill-opacity="0.0" d="m306.47952 318.89764l0 -31.39212l135.84253 0l0 -31.379547" fill-rule="evenodd"/><path stroke="#000000" stroke-width="1.0" stroke-linejoin="round" stroke-linecap="butt" d="m306.47952 318.89764l0 -31.39212l135.84253 0l0 -31.379547" fill-rule="evenodd"/><path fill="#000000" fill-opacity="0.0" d="m654.31683 321.18765l0 -32.537384l-136.62994 0l0 -32.533478" fill-rule="evenodd"/><path stroke="#000000" stroke-width="1.0" stroke-linejoin="round" stroke-linecap="butt" d="m654.31683 321.18765l0 -32.537384l-136.62994 0l0 -32.533478" fill-rule="evenodd"/><path fill="#000000" fill-opacity="0.0" d="m202.22835 484.97638l0 -21.4003l66.58269 0l0 -21.402863" fill-rule="evenodd"/><path stroke="#000000" stroke-width="1.0" stroke-linejoin="round" stroke-linecap="butt" d="m202.22835 484.97638l0 -21.4003l66.58269 0l0 -21.402863" fill-rule="evenodd"/><path fill="#000000" fill-opacity="0.0" d="m303.958 538.82416l0 -48.323944l40.188965 0l0 -48.337494" fill-rule="evenodd"/><path stroke="#000000" stroke-width="1.0" stroke-linejoin="round" stroke-linecap="butt" d="m303.958 538.82416l0 -48.323944l40.188965 0l0 -48.337494" fill-rule="evenodd"/><path fill="#000000" fill-opacity="0.0" d="m556.3202 484.97638l0 -20.255219l60.315002 0l0 -20.248718" fill-rule="evenodd"/><path stroke="#000000" stroke-width="1.0" stroke-linejoin="round" stroke-linecap="butt" d="m556.3202 484.97638l0 -20.255219l60.315002 0l0 -20.248718" fill-rule="evenodd"/><path fill="#000000" fill-opacity="0.0" d="m652.5722 538.82416l0 -47.17923l39.433044 0l0 -47.182983" fill-rule="evenodd"/><path stroke="#000000" stroke-width="1.0" stroke-linejoin="round" stroke-linecap="butt" d="m652.5722 538.82416l0 -47.17923l39.433044 0l0 -47.182983" fill-rule="evenodd"/><path fill="#000000" fill-opacity="0.0" d="m439.7953 630.07874l117.19684 0l0 96.944885l-117.19684 0z" fill-rule="evenodd"/><path fill="#000000" d="m453.5453 700.51874l0 -45.8125l9.125 0l10.84375 32.4375q1.5 4.53125 2.1875 6.78125q0.78125 -2.5 2.4375 -7.34375l10.96875 -31.875l8.15625 0l0 45.8125l-5.84375 0l0 -38.34375l-13.3125 38.34375l-5.46875 0l-13.25 -39.0l0 39.0l-5.84375 0zm72.40625 0l-5.625 0l0 -35.84375q-2.03125 1.9375 -5.328125 3.875q-3.296875 1.9375 -5.921875 2.90625l0 -5.4375q4.71875 -2.21875 8.25 -5.375q3.53125 -3.15625 5.0 -6.125l3.625 0l0 46.0z" fill-rule="nonzero"/><path fill="#cfe2f3" d="m156.1811 550.04724l46.04724 -65.07086l46.04724 65.07086z" fill-rule="evenodd"/><path stroke="#000000" stroke-width="1.0" stroke-linejoin="round" stroke-linecap="butt" d="m156.1811 550.04724l46.04724 -65.07086l46.04724 65.07086z" fill-rule="evenodd"/><path fill="#000000" d="m205.75453 531.88727l-3.28125 0l0 -20.90628q-1.1875 1.1250305 -3.109375 2.2656555q-1.921875 1.125 -3.453125 1.6875l0 -3.1719055q2.75 -1.296875 4.8125 -3.125q2.0625 -1.84375 2.921875 -3.578125l2.109375 0l0 26.828156z" fill-rule="nonzero"/><path fill="#cfe2f3" d="m510.27298 550.04724l46.04721 -65.07086l46.04724 65.07086z" fill-rule="evenodd"/><path stroke="#000000" stroke-width="1.0" stroke-linejoin="round" stroke-linecap="butt" d="m510.27298 550.04724l46.04721 -65.07086l46.04724 65.07086z" fill-rule="evenodd"/><path fill="#000000" d="m547.5026 524.8404l3.28125 -0.4375q0.5625 2.78125 1.921875 4.015625q1.359375 1.234375 3.3125 1.234375q2.3125 0 3.90625 -1.609375q1.59375 -1.609375 1.59375 -3.96875q0 -2.265625 -1.484375 -3.734375q-1.46875 -1.46875 -3.734375 -1.46875q-0.9375 0 -2.328125 0.359375l0.375 -2.875q0.328125 0.03125 0.53125 0.03125q2.09375 0 3.765625 -1.09375q1.671875 -1.09375 1.671875 -3.3594055q0 -1.8125 -1.21875 -2.984375q-1.21875 -1.1875 -3.15625 -1.1875q-1.90625 0 -3.1875 1.203125q-1.265625 1.203125 -1.640625 3.6094055l-3.28125 -0.5937805q0.609375 -3.296875 2.734375 -5.109375q2.140625 -1.8125 5.3125 -1.8125q2.1875 0 4.015625 0.9375q1.84375 0.9375 2.8125 2.5625q0.984375 1.625 0.984375 3.4375q0 1.7344055 -0.9375 3.1562805q-0.921875 1.421875 -2.734375 2.265625q2.359375 0.546875 3.671875 2.265625q1.3125 1.71875 1.3125 4.3125q0 3.5 -2.546875 5.9375q-2.546875 2.421875 -6.453125 2.421875q-3.515625 0 -5.84375 -2.09375q-2.328125 -2.09375 -2.65625 -5.421875z" fill-rule="nonzero"/></g></svg>