<svg version="1.1" viewBox="0.0 0.0 956.5301837270341 743.8005249343832" fill="none" stroke="none" stroke-linecap="square" stroke-miterlimit="10" xmlns:xlink="http://www.w3.org/1999/xlink" xmlns="http://www.w3.org/2000/svg"><clipPath id="p.0"><path d="m0 0l956.5302 0l0 743.80054l-956.5302 0l0 -743.80054z" clip-rule="nonzero"/></clipPath><g clip-path="url(#p.0)"><path fill="#ffffff" d="m0 0l956.5302 0l0 743.80054l-956.5302 0z" fill-rule="evenodd"/><path fill="#ffffff" d="m61.401573 60.535435l837.1969 0l0 563.40155l-837.1969 0z" fill-rule="evenodd"/><path stroke="#ff00ff" stroke-width="8.0" stroke-linejoin="round" stroke-linecap="butt" d="m61.401573 60.535435l837.1969 0l0 563.40155l-837.1969 0z" fill-rule="evenodd"/><path fill="#cfe2f3" d="m283.57742 656.7008l58.59842 -77.63782l58.59845 77.63782z" fill-rule="evenodd"/><path stroke="#000000" stroke-width="1.0" stroke-linejoin="round" stroke-linecap="butt" d="m283.57742 656.7008l58.59842 -77.63782l58.59845 77.63782z" fill-rule="evenodd"/><path fill="#000000" d="m331.50397 636.9408l8.328125 -11.859375l-7.703125 -10.953125l4.828125 0l3.5 5.34375q0.984375 1.53125 1.59375 2.5625q0.9375 -1.421875 1.734375 -2.515625l3.84375 -5.390625l4.625 0l-7.890625 10.734375l8.484375 12.078125l-4.734375 0l-4.6875 -7.09375l-1.25 -1.90625l-6.0 9.0l-4.671875 0z" fill-rule="nonzero"/><path fill="#cfe2f3" d="m631.1207 656.7008l58.59845 -77.63782l58.59839 77.63782z" fill-rule="evenodd"/><path stroke="#000000" stroke-width="1.0" stroke-linejoin="round" stroke-linecap="butt" d="m631.1207 656.7008l58.59845 -77.63782l58.59839 77.63782z" fill-rule="evenodd"/><path fill="#000000" d="m681.45355 645.72205l-0.4375 -3.625q1.265625 0.34375 2.21875 0.34375q1.28125 0 2.046875 -0.4375q0.78125 -0.421875 1.28125 -1.1875q0.359375 -0.59375 1.1875 -2.890625q0.09375 -0.3125 0.34375 -0.9375l-8.671875 -22.859375l4.171875 0l4.75 13.203125q0.921875 2.515625 1.65625 5.296875q0.671875 -2.671875 1.59375 -5.203125l4.875 -13.296875l3.859375 0l-8.671875 23.203125q-1.40625 3.75 -2.171875 5.171875q-1.03125 1.921875 -2.375 2.8125q-1.328125 0.890625 -3.171875 0.890625q-1.109375 0 -2.484375 -0.484375z" fill-rule="nonzero"/><path fill="#cfe2f3" d="m421.40027 100.89764l58.59842 -77.637794l58.59842 77.637794z" fill-rule="evenodd"/><path stroke="#000000" stroke-width="1.0" stroke-linejoin="round" stroke-linecap="butt" d="m421.40027 100.89764l58.59842 -77.637794l58.59842 77.637794z" fill-rule="evenodd"/><path fill="#000000" d="m469.85806 81.137634l0 -3.140625l14.53125 -16.671875q-2.484375 0.125 -4.375 0.125l-9.296875 0l0 -3.125l18.65625 0l0 2.546875l-12.359375 14.484375l-2.390625 2.640625q2.609375 -0.1875 4.875 -0.1875l10.5625 0l0 3.328125l-20.203125 0z" fill-rule="nonzero"/><path fill="#00ff00" d="m191.87665 399.84122l164.40945 0l0 85.25983l-164.40945 0z" fill-rule="evenodd"/><path stroke="#000000" stroke-width="1.0" stroke-linejoin="round" stroke-linecap="butt" d="m191.87665 399.84122l164.40945 0l0 85.25983l-164.40945 0z" fill-rule="evenodd"/><path fill="#000000" d="m234.77278 456.87112l0 -28.640625l3.78125 0l0 25.265625l14.109375 0l0 3.375l-17.890625 0zm36.15233 -6.6875l3.625 0.453125q-0.859375 3.1875 -3.1875 4.953125q-2.3125 1.75 -5.9375 1.75q-4.546875 0 -7.21875 -2.796875q-2.6562347 -2.8125 -2.6562347 -7.875q0 -5.234375 2.6874847 -8.125q2.703125 -2.890625 7.0 -2.890625q4.15625 0 6.796875 2.84375q2.640625 2.828125 2.640625 7.96875q0 0.3125 -0.03125 0.9375l-15.46875 0q0.203125 3.40625 1.9375 5.234375q1.734375 1.8125 4.34375 1.8125q1.921875 0 3.28125 -1.015625q1.375 -1.015625 2.1875 -3.25zm-11.546875 -5.671875l11.578125 0q-0.234375 -2.625 -1.328125 -3.9375q-1.671875 -2.03125 -4.359375 -2.03125q-2.421875 0 -4.078125 1.625q-1.640625 1.625 -1.8125 4.34375zm18.183594 6.171875l3.46875 -0.546875q0.296875 2.078125 1.625 3.203125q1.34375 1.109375 3.75 1.109375q2.421875 0 3.59375 -0.984375q1.171875 -0.984375 1.171875 -2.3125q0 -1.203125 -1.03125 -1.875q-0.71875 -0.46875 -3.59375 -1.203125q-3.875 -0.96875 -5.375 -1.671875q-1.484375 -0.71875 -2.265625 -1.984375q-0.765625 -1.265625 -0.765625 -2.78125q0 -1.390625 0.640625 -2.5625q0.640625 -1.1875 1.734375 -1.96875q0.8125 -0.609375 2.21875 -1.03125q1.421875 -0.421875 3.046875 -0.421875q2.4375 0 4.28125 0.703125q1.859375 0.703125 2.734375 1.90625q0.875 1.203125 1.203125 3.21875l-3.4375 0.46875q-0.234375 -1.609375 -1.359375 -2.5q-1.109375 -0.90625 -3.171875 -0.90625q-2.421875 0 -3.453125 0.8125q-1.03125 0.796875 -1.03125 1.875q0 0.671875 0.421875 1.21875q0.4375 0.578125 1.359375 0.9375q0.515625 0.203125 3.09375 0.90625q3.734375 1.0 5.203125 1.640625q1.484375 0.625 2.3125 1.84375q0.84375 1.203125 0.84375 3.0q0 1.75 -1.03125 3.3125q-1.015625 1.546875 -2.953125 2.40625q-1.921875 0.84375 -4.375 0.84375q-4.03125 0 -6.15625 -1.671875q-2.125 -1.6875 -2.703125 -4.984375zm20.0 0l3.46875 -0.546875q0.296875 2.078125 1.625 3.203125q1.34375 1.109375 3.75 1.109375q2.421875 0 3.59375 -0.984375q1.171875 -0.984375 1.171875 -2.3125q0 -1.203125 -1.03125 -1.875q-0.71875 -0.46875 -3.59375 -1.203125q-3.875 -0.96875 -5.375 -1.671875q-1.484375 -0.71875 -2.265625 -1.984375q-0.765625 -1.265625 -0.765625 -2.78125q0 -1.390625 0.640625 -2.5625q0.640625 -1.1875 1.734375 -1.96875q0.8125 -0.609375 2.21875 -1.03125q1.421875 -0.421875 3.046875 -0.421875q2.4375 0 4.28125 0.703125q1.859375 0.703125 2.734375 1.90625q0.875 1.203125 1.203125 3.21875l-3.4375 0.46875q-0.234375 -1.609375 -1.359375 -2.5q-1.109375 -0.90625 -3.171875 -0.90625q-2.421875 0 -3.453125 0.8125q-1.03125 0.796875 -1.03125 1.875q0 0.671875 0.421875 1.21875q0.4375 0.578125 1.359375 0.9375q0.515625 0.203125 3.09375 0.90625q3.734375 1.0 5.203125 1.640625q1.484375 0.625 2.3125 1.84375q0.84375 1.203125 0.84375 3.0q0 1.75 -1.03125 3.3125q-1.015625 1.546875 -2.953125 2.40625q-1.921875 0.84375 -4.375 0.84375q-4.03125 0 -6.15625 -1.671875q-2.125 -1.6875 -2.703125 -4.984375z" fill-rule="nonzero"/><path fill="#cfe2f3" d="m212.60289 501.82022l23.795288 -32.724426l23.795273 32.724426z" fill-rule="evenodd"/><path stroke="#000000" stroke-width="1.0" stroke-linejoin="round" stroke-linecap="butt" d="m212.60289 501.82022l23.795288 -32.724426l23.795273 32.724426z" fill-rule="evenodd"/><path fill="#cfe2f3" d="m287.9677 501.82022l23.795288 -32.724426l23.795288 32.724426z" fill-rule="evenodd"/><path stroke="#000000" stroke-width="1.0" stroke-linejoin="round" stroke-linecap="butt" d="m287.9677 501.82022l23.795288 -32.724426l23.795288 32.724426z" fill-rule="evenodd"/><path fill="#8e7cc3" d="m250.28531 411.26642l23.795288 -32.724426l23.795258 32.724426z" fill-rule="evenodd"/><path stroke="#000000" stroke-width="1.0" stroke-linejoin="round" stroke-linecap="butt" d="m250.28531 411.26642l23.795288 -32.724426l23.795258 32.724426z" fill-rule="evenodd"/><path fill="#ffe599" d="m520.5696 212.24934l243.9685 0l0 85.25984l-243.9685 0z" fill-rule="evenodd"/><path stroke="#000000" stroke-width="1.0" stroke-linejoin="round" stroke-linecap="butt" d="m520.5696 212.24934l243.9685 0l0 85.25984l-243.9685 0z" fill-rule="evenodd"/><path fill="#000000" d="m635.1749 269.27927l0 -28.640625l3.78125 0l0 28.640625l-3.78125 0zm10.863281 0l0 -18.015625l-3.109375 0l0 -2.734375l3.109375 0l0 -2.203125q0 -2.09375 0.359375 -3.109375q0.515625 -1.359375 1.796875 -2.203125q1.28125 -0.859375 3.578125 -0.859375q1.484375 0 3.28125 0.359375l-0.53125 3.0625q-1.09375 -0.203125 -2.0625 -0.203125q-1.609375 0 -2.28125 0.6875q-0.65625 0.6875 -0.65625 2.5625l0 1.90625l4.046875 0l0 2.734375l-4.046875 0l0 18.015625l-3.484375 0z" fill-rule="nonzero"/><path fill="#cfe2f3" d="m621.29584 314.22833l23.795227 -32.724396l23.795288 32.724396z" fill-rule="evenodd"/><path stroke="#000000" stroke-width="1.0" stroke-linejoin="round" stroke-linecap="butt" d="m621.29584 314.22833l23.795227 -32.724396l23.795288 32.724396z" fill-rule="evenodd"/><path fill="#cfe2f3" d="m696.66064 314.22833l23.795288 -32.724396l23.795227 32.724396z" fill-rule="evenodd"/><path stroke="#000000" stroke-width="1.0" stroke-linejoin="round" stroke-linecap="butt" d="m696.66064 314.22833l23.795288 -32.724396l23.795227 32.724396z" fill-rule="evenodd"/><path fill="#cfe2f3" d="m616.66064 223.67455l23.795288 -32.72441l23.795227 32.72441z" fill-rule="evenodd"/><path stroke="#000000" stroke-width="1.0" stroke-linejoin="round" stroke-linecap="butt" d="m616.66064 223.67455l23.795288 -32.72441l23.795227 32.72441z" fill-rule="evenodd"/><path fill="#000000" fill-opacity="0.0" d="m274.0806 378.542l0 -32.15683l295.65353 0l0 -32.158142" fill-rule="evenodd"/><path stroke="#000000" stroke-width="1.0" stroke-linejoin="round" stroke-linecap="butt" d="m274.0806 378.542l0 -32.15683l295.65353 0l0 -32.158142" fill-rule="evenodd"/><path fill="#000000" fill-opacity="0.0" d="m342.17584 579.063l0 -27.35968l-105.76376 0l0 -49.868652" fill-rule="evenodd"/><path stroke="#000000" stroke-width="1.0" stroke-linejoin="round" stroke-linecap="butt" d="m342.17584 579.063l0 -27.35968l-105.76376 0l0 -49.868652" fill-rule="evenodd"/><path fill="#000000" fill-opacity="0.0" d="m441.30185 640.7008l149.29135 0l0 96.944885l-149.29135 0z" fill-rule="evenodd"/><path fill="#000000" d="m455.05185 711.1408l0 -45.8125l9.125 0l10.84375 32.4375q1.5 4.53125 2.1875 6.78125q0.78125 -2.5 2.4375 -7.34375l10.96875 -31.875l8.15625 0l0 45.8125l-5.84375 0l0 -38.34375l-13.3125 38.34375l-5.46875 0l-13.25 -39.0l0 39.0l-5.84375 0zm74.43747 -4.09375q-3.125 2.65625 -6.015625 3.75q-2.890625 1.09375 -6.203125 1.09375q-5.4687195 0 -8.4062195 -2.671875q-2.9375 -2.671875 -2.9375 -6.828125q0 -2.4375 1.109375 -4.453125q1.109375 -2.015625 2.90625 -3.234375q1.796875 -1.21875 4.0468445 -1.84375q1.65625 -0.4375 5.0 -0.84375q6.8125 -0.8125 10.03125 -1.9375q0.03125 -1.15625 0.03125 -1.46875q0 -3.4375 -1.59375 -4.84375q-2.15625 -1.90625 -6.40625 -1.90625q-3.96875 0 -5.859375 1.390625q-1.890625 1.390625 -2.796875 4.921875l-5.4999695 -0.75q0.75 -3.53125 2.46875 -5.703125q1.71875 -2.171875 4.9687195 -3.34375q3.25 -1.171875 7.53125 -1.171875q4.25 0 6.90625 1.0q2.65625 1.0 3.90625 2.515625q1.25 1.515625 1.75 3.828125q0.28125 1.4375 0.28125 5.1875l0 7.5q0 7.84375 0.359375 9.921875q0.359375 2.078125 1.421875 3.984375l-5.875 0q-0.875 -1.75 -1.125 -4.09375zm-0.46875 -12.5625q-3.0625 1.25 -9.1875 2.125q-3.46875 0.5 -4.90625 1.125q-1.4375 0.625 -2.21875 1.828125q-0.7812195 1.203125 -0.7812195 2.671875q0 2.25 1.7030945 3.75q1.703125 1.5 4.984375 1.5q3.25 0 5.78125 -1.421875q2.53125 -1.421875 3.71875 -3.890625q0.90625 -1.90625 0.90625 -5.625l0 -2.0625zm10.65625 16.65625l12.125 -17.25l-11.21875 -15.9375l7.03125 0l5.09375 7.78125q1.4375 2.21875 2.3125 3.71875q1.375 -2.0625 2.53125 -3.65625l5.59375 -7.84375l6.71875 0l-11.46875 15.625l12.34375 17.5625l-6.90625 0l-6.8125 -10.3125l-1.8125 -2.78125l-8.71875 13.09375l-6.8125 0z" fill-rule="nonzero"/><path fill="#8e7cc3" d="m545.93097 314.22833l23.795288 -32.724396l23.795288 32.724396z" fill-rule="evenodd"/><path stroke="#000000" stroke-width="1.0" stroke-linejoin="round" stroke-linecap="butt" d="m545.93097 314.22833l23.795288 -32.724396l23.795288 32.724396z" fill-rule="evenodd"/><path fill="#000000" fill-opacity="0.0" d="m311.763 501.82022l0 26.830658l377.95276 0l0 50.397705" fill-rule="evenodd"/><path stroke="#000000" stroke-width="1.0" stroke-linejoin="round" stroke-linecap="butt" d="m311.763 501.82022l0 26.830658l377.95276 0l0 50.397705" fill-rule="evenodd"/><path fill="#000000" fill-opacity="0.0" d="m720.45593 314.22833l0 237.47546l-378.26773 0l0 27.374939" fill-rule="evenodd"/><path stroke="#000000" stroke-width="1.0" stroke-linejoin="round" stroke-linecap="butt" d="m720.45593 314.22833l0 237.47546l-378.26773 0l0 27.374939" fill-rule="evenodd"/><path fill="#000000" fill-opacity="0.0" d="m479.9987 100.89764l0 45.02633l160.47244 0l0 45.02092" fill-rule="evenodd"/><path stroke="#000000" stroke-width="1.0" stroke-linejoin="round" stroke-linecap="butt" d="m479.9987 100.89764l0 45.02633l160.47244 0l0 45.02092" fill-rule="evenodd"/><path fill="#000000" fill-opacity="0.0" d="m645.09106 314.22833l0 132.41727l44.629944 0l0 132.43314" fill-rule="evenodd"/><path stroke="#000000" stroke-width="1.0" stroke-linejoin="round" stroke-linecap="butt" d="m645.09106 314.22833l0 132.41727l44.629944 0l0 132.43314" fill-rule="evenodd"/></g></svg>