<svg version="1.1" viewBox="0.0 0.0 960.0 720.0" fill="none" stroke="none" stroke-linecap="square" stroke-miterlimit="10" xmlns:xlink="http://www.w3.org/1999/xlink" xmlns="http://www.w3.org/2000/svg"><clipPath id="p.0"><path d="m0 0l960.0 0l0 720.0l-960.0 0l0 -720.0z" clip-rule="nonzero"/></clipPath><g clip-path="url(#p.0)"><path fill="#000000" fill-opacity="0.0" d="m0 0l960.0 0l0 720.0l-960.0 0z" fill-rule="evenodd"/><path fill="#ffffff" d="m74.58793 97.419945l837.19684 0l0 526.6772l-837.19684 0z" fill-rule="evenodd"/><path stroke="#8e7cc3" stroke-width="8.0" stroke-linejoin="round" stroke-linecap="butt" d="m74.58793 97.419945l837.19684 0l0 526.6772l-837.19684 0z" fill-rule="evenodd"/><path fill="#000000" d="m472.2801 331.82602l2.875 -8.875q9.9375 3.5 14.4375 6.0625q-1.1875 -11.3125 -1.25 -15.5625l9.0625 0q-0.1875 6.1875 -1.4375 15.5q6.4375 -3.25 14.75 -6.0l2.875 8.875q-7.9375 2.625 -15.5625 3.5q3.8125 3.3125 10.75 11.8125l-7.5 5.3125q-3.625 -4.9375 -8.5625 -13.4375q-4.625 8.8125 -8.125 13.4375l-7.375 -5.3125q7.25 -8.9375 10.375 -11.8125q-8.0625 -1.5625 -15.3125 -3.5z" fill-rule="nonzero"/><path fill="#cfe2f3" d="m260.28085 656.0735l58.59842 -77.63782l58.59842 77.63782z" fill-rule="evenodd"/><path stroke="#000000" stroke-width="1.0" stroke-linejoin="round" stroke-linecap="butt" d="m260.28085 656.0735l58.59842 -77.63782l58.59842 77.63782z" fill-rule="evenodd"/><path fill="#000000" d="m324.4408 633.501q-2.15625 1.828125 -4.140625 2.578125q-1.984375 0.75 -4.265625 0.75q-3.765625 0 -5.78125 -1.828125q-2.015625 -1.84375 -2.015625 -4.703125q0 -1.671875 0.75 -3.0625q0.765625 -1.390625 2.0 -2.21875q1.25 -0.84375 2.796875 -1.265625q1.125 -0.3125 3.4375 -0.59375q4.671875 -0.546875 6.890625 -1.328125q0.015625 -0.796875 0.015625 -1.0q0 -2.375 -1.09375 -3.34375q-1.484375 -1.296875 -4.40625 -1.296875q-2.71875 0 -4.03125 0.953125q-1.296875 0.953125 -1.921875 3.375l-3.78125 -0.515625q0.515625 -2.421875 1.703125 -3.90625q1.1875 -1.5 3.421875 -2.296875q2.234375 -0.8125 5.171875 -0.8125q2.921875 0 4.75 0.6875q1.828125 0.6875 2.6875 1.734375q0.859375 1.03125 1.203125 2.625q0.1875 0.984375 0.1875 3.5625l0 5.15625q0 5.390625 0.25 6.828125q0.25 1.421875 0.984375 2.734375l-4.046875 0q-0.59375 -1.203125 -0.765625 -2.8125zm-0.328125 -8.640625q-2.109375 0.859375 -6.3125 1.46875q-2.390625 0.34375 -3.375 0.78125q-0.984375 0.421875 -1.53125 1.25q-0.53125 0.8125 -0.53125 1.828125q0 1.546875 1.171875 2.578125q1.171875 1.03125 3.421875 1.03125q2.234375 0 3.96875 -0.96875q1.75 -0.984375 2.5625 -2.6875q0.625 -1.3125 0.625 -3.859375l0 -1.421875z" fill-rule="nonzero"/><path fill="#cfe2f3" d="m608.895 656.0735l58.59839 -77.63782l58.59845 77.63782z" fill-rule="evenodd"/><path stroke="#000000" stroke-width="1.0" stroke-linejoin="round" stroke-linecap="butt" d="m608.895 656.0735l58.59839 -77.63782l58.59845 77.63782z" fill-rule="evenodd"/><path fill="#000000" d="m661.72687 636.3135l-3.59375 0l0 -31.5l3.875 0l0 11.234375q2.453125 -3.0625 6.25 -3.0625q2.109375 0 3.984375 0.84375q1.875 0.84375 3.09375 2.390625q1.21875 1.53125 1.90625 3.703125q0.6875 2.171875 0.6875 4.640625q0 5.859375 -2.90625 9.0625q-2.90625 3.203125 -6.953125 3.203125q-4.046875 0 -6.34375 -3.375l0 2.859375zm-0.046875 -11.578125q0 4.09375 1.125 5.921875q1.828125 2.984375 4.9375 2.984375q2.53125 0 4.375 -2.1875q1.859375 -2.203125 1.859375 -6.578125q0 -4.46875 -1.78125 -6.59375q-1.765625 -2.125 -4.28125 -2.125q-2.53125 0 -4.390625 2.203125q-1.84375 2.203125 -1.84375 6.375z" fill-rule="nonzero"/><path fill="#cfe2f3" d="m434.5866 137.78215l58.59842 -77.637794l58.59842 77.637794z" fill-rule="evenodd"/><path stroke="#000000" stroke-width="1.0" stroke-linejoin="round" stroke-linecap="butt" d="m434.5866 137.78215l58.59842 -77.637794l58.59842 77.637794z" fill-rule="evenodd"/><path fill="#000000" d="m499.9819 109.66277l3.796875 0.5q-0.625 3.921875 -3.203125 6.15625q-2.5625 2.21875 -6.296875 2.21875q-4.6875 0 -7.53125 -3.0625q-2.84375 -3.0625 -2.84375 -8.78125q0 -3.6875 1.21875 -6.453125q1.234375 -2.78125 3.734375 -4.15625q2.5 -1.390625 5.453125 -1.390625q3.703125 0 6.0625 1.875q2.375 1.875 3.046875 5.34375l-3.765625 0.578125q-0.53125 -2.296875 -1.90625 -3.453125q-1.359375 -1.171875 -3.296875 -1.171875q-2.921875 0 -4.75 2.09375q-1.828125 2.09375 -1.828125 6.625q0 4.609375 1.765625 6.6875q1.765625 2.078125 4.59375 2.078125q2.28125 0 3.796875 -1.390625q1.53125 -1.390625 1.953125 -4.296875z" fill-rule="nonzero"/></g></svg>