<svg version="1.1" viewBox="0.0 0.0 956.5301837270341 743.8005249343832" fill="none" stroke="none" stroke-linecap="square" stroke-miterlimit="10" xmlns:xlink="http://www.w3.org/1999/xlink" xmlns="http://www.w3.org/2000/svg"><clipPath id="p.0"><path d="m0 0l956.5302 0l0 743.80054l-956.5302 0l0 -743.80054z" clip-rule="nonzero"/></clipPath><g clip-path="url(#p.0)"><path fill="#ffffff" d="m0 0l956.5302 0l0 743.80054l-956.5302 0z" fill-rule="evenodd"/><path fill="#ffffff" d="m61.401573 60.535435l837.1969 0l0 526.6771l-837.1969 0z" fill-rule="evenodd"/><path stroke="#666666" stroke-width="8.0" stroke-linejoin="round" stroke-linecap="butt" d="m61.401573 60.535435l837.1969 0l0 526.6771l-837.1969 0z" fill-rule="evenodd"/><path fill="#cfe2f3" d="m159.93964 616.14435l58.59842 -77.63776l58.59842 77.63776z" fill-rule="evenodd"/><path stroke="#000000" stroke-width="1.0" stroke-linejoin="round" stroke-linecap="butt" d="m159.93964 616.14435l58.59842 -77.63776l58.59842 77.63776z" fill-rule="evenodd"/><path fill="#000000" d="m207.86618 596.38434l8.328125 -11.859375l-7.703125 -10.953125l4.828125 0l3.5 5.34375q0.984375 1.53125 1.59375 2.5625q0.9375 -1.421875 1.734375 -2.515625l3.84375 -5.390625l4.625 0l-7.890625 10.734375l8.484375 12.078125l-4.734375 0l-4.6875 -7.09375l-1.25 -1.90625l-6.0 9.0l-4.671875 0z" fill-rule="nonzero"/><path fill="#cfe2f3" d="m334.2467 616.14435l58.59845 -77.63776l58.59842 77.63776z" fill-rule="evenodd"/><path stroke="#000000" stroke-width="1.0" stroke-linejoin="round" stroke-linecap="butt" d="m334.2467 616.14435l58.59845 -77.63776l58.59842 77.63776z" fill-rule="evenodd"/><path fill="#000000" d="m377.42523 596.38434l0 -22.8125l3.453125 0l0 3.203125q1.078125 -1.6875 2.859375 -2.703125q1.78125 -1.015625 4.0625 -1.015625q2.53125 0 4.15625 1.046875q1.625 1.046875 2.28125 2.9375q2.71875 -3.984375 7.046875 -3.984375q3.40625 0 5.21875 1.875q1.828125 1.875 1.828125 5.796875l0 15.65625l-3.84375 0l0 -14.375q0 -2.3125 -0.375 -3.328125q-0.375 -1.03125 -1.359375 -1.65625q-0.984375 -0.625 -2.328125 -0.625q-2.40625 0 -4.0 1.609375q-1.578125 1.59375 -1.578125 5.125l0 13.25l-3.875 0l0 -14.828125q0 -2.578125 -0.953125 -3.859375q-0.9375 -1.296875 -3.078125 -1.296875q-1.640625 0 -3.03125 0.859375q-1.375 0.859375 -2.0 2.515625q-0.625 1.65625 -0.625 4.765625l0 11.84375l-3.859375 0z" fill-rule="nonzero"/><path fill="#cfe2f3" d="m508.5538 616.14435l58.59842 -77.63776l58.59845 77.63776z" fill-rule="evenodd"/><path stroke="#000000" stroke-width="1.0" stroke-linejoin="round" stroke-linecap="butt" d="m508.5538 616.14435l58.59842 -77.63776l58.59845 77.63776z" fill-rule="evenodd"/><path fill="#000000" d="m558.8866 605.1656l-0.4375 -3.625q1.265625 0.34375 2.21875 0.34375q1.28125 0 2.046875 -0.4375q0.78125 -0.421875 1.28125 -1.1875q0.359375 -0.59375 1.1875 -2.890625q0.09375 -0.3125 0.34375 -0.9375l-8.671875 -22.859375l4.171875 0l4.75 13.203125q0.921875 2.515625 1.65625 5.296875q0.671875 -2.671875 1.59375 -5.203125l4.875 -13.296875l3.859375 0l-8.671875 23.203125q-1.40625 3.75 -2.171875 5.171875q-1.03125 1.921875 -2.375 2.8125q-1.328125 0.890625 -3.171875 0.890625q-1.109375 0 -2.484375 -0.484375z" fill-rule="nonzero"/><path fill="#cfe2f3" d="m682.8609 616.14435l58.59839 -77.63776l58.59845 77.63776z" fill-rule="evenodd"/><path stroke="#000000" stroke-width="1.0" stroke-linejoin="round" stroke-linecap="butt" d="m682.8609 616.14435l58.59839 -77.63776l58.59845 77.63776z" fill-rule="evenodd"/><path fill="#000000" d="m732.1302 596.38434l0 -22.8125l3.46875 0l0 3.234375q2.515625 -3.75 7.265625 -3.75q2.0625 0 3.796875 0.75q1.734375 0.734375 2.59375 1.9375q0.859375 1.203125 1.203125 2.84375q0.203125 1.078125 0.203125 3.765625l0 14.03125l-3.859375 0l0 -13.875q0 -2.375 -0.453125 -3.53125q-0.453125 -1.171875 -1.609375 -1.875q-1.140625 -0.703125 -2.6875 -0.703125q-2.46875 0 -4.265625 1.578125q-1.796875 1.5625 -1.796875 5.9375l0 12.46875l-3.859375 0z" fill-rule="nonzero"/><path fill="#cfe2f3" d="m421.40027 100.89764l58.59842 -77.637794l58.59842 77.637794z" fill-rule="evenodd"/><path stroke="#000000" stroke-width="1.0" stroke-linejoin="round" stroke-linecap="butt" d="m421.40027 100.89764l58.59842 -77.637794l58.59842 77.637794z" fill-rule="evenodd"/><path fill="#000000" d="m469.85806 81.137634l0 -3.140625l14.53125 -16.671875q-2.484375 0.125 -4.375 0.125l-9.296875 0l0 -3.125l18.65625 0l0 2.546875l-12.359375 14.484375l-2.390625 2.640625q2.609375 -0.1875 4.875 -0.1875l10.5625 0l0 3.328125l-20.203125 0z" fill-rule="nonzero"/><path fill="#e6b8af" d="m224.27559 380.19684l164.40944 0l0 85.25986l-164.40944 0z" fill-rule="evenodd"/><path stroke="#000000" stroke-width="1.0" stroke-linejoin="round" stroke-linecap="butt" d="m224.27559 380.19684l164.40944 0l0 85.25986l-164.40944 0z" fill-rule="evenodd"/><path fill="#000000" d="m297.7756 410.8549l1.1875 -3.6875q4.140625 1.453125 6.015625 2.515625q-0.484375 -4.703125 -0.515625 -6.484375l3.78125 0q-0.078125 2.578125 -0.609375 6.46875q2.6875 -1.359375 6.15625 -2.5l1.1875 3.6875q-3.296875 1.09375 -6.484375 1.46875q1.59375 1.375 4.484375 4.90625l-3.125 2.21875q-1.515625 -2.0625 -3.5625 -5.59375q-1.9375 3.671875 -3.390625 5.59375l-3.078125 -2.21875q3.03125 -3.71875 4.328125 -4.90625q-3.359375 -0.65625 -6.375 -1.46875z" fill-rule="nonzero"/><path fill="#cfe2f3" d="m245.00185 482.17584l23.795273 -32.724396l23.795288 32.724396z" fill-rule="evenodd"/><path stroke="#000000" stroke-width="1.0" stroke-linejoin="round" stroke-linecap="butt" d="m245.00185 482.17584l23.795273 -32.724396l23.795288 32.724396z" fill-rule="evenodd"/><path fill="#cfe2f3" d="m320.36667 482.17584l23.795288 -32.724396l23.795258 32.724396z" fill-rule="evenodd"/><path stroke="#000000" stroke-width="1.0" stroke-linejoin="round" stroke-linecap="butt" d="m320.36667 482.17584l23.795288 -32.724396l23.795258 32.724396z" fill-rule="evenodd"/><path fill="#cfe2f3" d="m282.68427 391.62204l23.795258 -32.724396l23.795288 32.724396z" fill-rule="evenodd"/><path stroke="#000000" stroke-width="1.0" stroke-linejoin="round" stroke-linecap="butt" d="m282.68427 391.62204l23.795258 -32.724396l23.795288 32.724396z" fill-rule="evenodd"/><path fill="#e6b8af" d="m572.11285 382.48688l164.40948 0l0 85.25983l-164.40948 0z" fill-rule="evenodd"/><path stroke="#000000" stroke-width="1.0" stroke-linejoin="round" stroke-linecap="butt" d="m572.11285 382.48688l164.40948 0l0 85.25983l-164.40948 0z" fill-rule="evenodd"/><path fill="#000000" d="m645.61285 413.14493l1.1875 -3.6875q4.140625 1.453125 6.015625 2.515625q-0.484375 -4.703125 -0.515625 -6.484375l3.78125 0q-0.078125 2.578125 -0.609375 6.46875q2.6875 -1.359375 6.15625 -2.5l1.1875 3.6875q-3.296875 1.09375 -6.484375 1.46875q1.59375 1.375 4.484375 4.90625l-3.125 2.21875q-1.515625 -2.0625 -3.5625 -5.59375q-1.9375 3.671875 -3.390625 5.59375l-3.078125 -2.21875q3.03125 -3.71875 4.328125 -4.90625q-3.359375 -0.65625 -6.375 -1.46875z" fill-rule="nonzero"/><path fill="#cfe2f3" d="m592.8391 484.46588l23.795288 -32.724426l23.795288 32.724426z" fill-rule="evenodd"/><path stroke="#000000" stroke-width="1.0" stroke-linejoin="round" stroke-linecap="butt" d="m592.8391 484.46588l23.795288 -32.724426l23.795288 32.724426z" fill-rule="evenodd"/><path fill="#cfe2f3" d="m668.2039 484.46588l23.795288 -32.724426l23.795288 32.724426z" fill-rule="evenodd"/><path stroke="#000000" stroke-width="1.0" stroke-linejoin="round" stroke-linecap="butt" d="m668.2039 484.46588l23.795288 -32.724426l23.795288 32.724426z" fill-rule="evenodd"/><path fill="#cfe2f3" d="m630.52155 393.91208l23.795288 -32.724426l23.795227 32.724426z" fill-rule="evenodd"/><path stroke="#000000" stroke-width="1.0" stroke-linejoin="round" stroke-linecap="butt" d="m630.52155 393.91208l23.795288 -32.724426l23.795227 32.724426z" fill-rule="evenodd"/><path fill="#f6b26b" d="m397.7953 202.13387l164.40942 0l0 85.25984l-164.40942 0z" fill-rule="evenodd"/><path stroke="#000000" stroke-width="1.0" stroke-linejoin="round" stroke-linecap="butt" d="m397.7953 202.13387l164.40942 0l0 85.25984l-164.40942 0z" fill-rule="evenodd"/><path fill="#000000" d="m478.16797 255.41003l0 -8.640625l-8.5625 0l0 -3.609375l8.5625 0l0 -8.5625l3.65625 0l0 8.5625l8.578125 0l0 3.609375l-8.578125 0l0 8.640625l-3.65625 0z" fill-rule="nonzero"/><path fill="#cfe2f3" d="m418.52155 304.11285l23.795258 -32.724396l23.795288 32.724396z" fill-rule="evenodd"/><path stroke="#000000" stroke-width="1.0" stroke-linejoin="round" stroke-linecap="butt" d="m418.52155 304.11285l23.795258 -32.724396l23.795288 32.724396z" fill-rule="evenodd"/><path fill="#cfe2f3" d="m493.88635 304.11285l23.795288 -32.724396l23.795288 32.724396z" fill-rule="evenodd"/><path stroke="#000000" stroke-width="1.0" stroke-linejoin="round" stroke-linecap="butt" d="m493.88635 304.11285l23.795288 -32.724396l23.795288 32.724396z" fill-rule="evenodd"/><path fill="#cfe2f3" d="m456.20395 213.55905l23.795258 -32.72441l23.795288 32.72441z" fill-rule="evenodd"/><path stroke="#000000" stroke-width="1.0" stroke-linejoin="round" stroke-linecap="butt" d="m456.20395 213.55905l23.795258 -32.72441l23.795288 32.72441z" fill-rule="evenodd"/><path fill="#000000" fill-opacity="0.0" d="m479.9992 180.83464l0 -79.937004" fill-rule="evenodd"/><path stroke="#000000" stroke-width="1.0" stroke-linejoin="round" stroke-linecap="butt" d="m479.9992 180.83464l0 -79.937004" fill-rule="evenodd"/><path fill="#000000" fill-opacity="0.0" d="m306.47952 358.89764l0 -27.392395l135.84253 0l0 -27.379272" fill-rule="evenodd"/><path stroke="#000000" stroke-width="1.0" stroke-linejoin="round" stroke-linecap="butt" d="m306.47952 358.89764l0 -27.392395l135.84253 0l0 -27.379272" fill-rule="evenodd"/><path fill="#000000" fill-opacity="0.0" d="m654.31683 361.18765l0 -28.53714l-136.62994 0l0 -28.533722" fill-rule="evenodd"/><path stroke="#000000" stroke-width="1.0" stroke-linejoin="round" stroke-linecap="butt" d="m654.31683 361.18765l0 -28.53714l-136.62994 0l0 -28.533722" fill-rule="evenodd"/><path fill="#000000" fill-opacity="0.0" d="m218.53806 538.5066l0 -28.165405l50.26773 0l0 -28.149597" fill-rule="evenodd"/><path stroke="#000000" stroke-width="1.0" stroke-linejoin="round" stroke-linecap="butt" d="m218.53806 538.5066l0 -28.165405l50.26773 0l0 -28.149597" fill-rule="evenodd"/><path fill="#000000" fill-opacity="0.0" d="m392.84515 538.5066l0 -28.165405l-48.692932 0l0 -28.149597" fill-rule="evenodd"/><path stroke="#000000" stroke-width="1.0" stroke-linejoin="round" stroke-linecap="butt" d="m392.84515 538.5066l0 -28.165405l-48.692932 0l0 -28.149597" fill-rule="evenodd"/><path fill="#000000" fill-opacity="0.0" d="m567.1522 538.5066l0 -27.020416l49.480347 0l0 -27.026855" fill-rule="evenodd"/><path stroke="#000000" stroke-width="1.0" stroke-linejoin="round" stroke-linecap="butt" d="m567.1522 538.5066l0 -27.020416l49.480347 0l0 -27.026855" fill-rule="evenodd"/><path fill="#000000" fill-opacity="0.0" d="m741.4593 538.5066l0 -27.020416l-49.44879 0l0 -27.026855" fill-rule="evenodd"/><path stroke="#000000" stroke-width="1.0" stroke-linejoin="round" stroke-linecap="butt" d="m741.4593 538.5066l0 -27.020416l-49.44879 0l0 -27.026855" fill-rule="evenodd"/><path fill="#000000" fill-opacity="0.0" d="m439.7953 630.07874l80.409424 0l0 96.944885l-80.409424 0z" fill-rule="evenodd"/><path fill="#000000" d="m453.5453 700.51874l0 -45.8125l9.125 0l10.84375 32.4375q1.5 4.53125 2.1875 6.78125q0.78125 -2.5 2.4375 -7.34375l10.96875 -31.875l8.15625 0l0 45.8125l-5.84375 0l0 -38.34375l-13.3125 38.34375l-5.46875 0l-13.25 -39.0l0 39.0l-5.84375 0z" fill-rule="nonzero"/></g></svg>