<svg version="1.1" viewBox="0.0 0.0 960.0 720.0" fill="none" stroke="none" stroke-linecap="square" stroke-miterlimit="10" xmlns:xlink="http://www.w3.org/1999/xlink" xmlns="http://www.w3.org/2000/svg"><clipPath id="p.0"><path d="m0 0l960.0 0l0 720.0l-960.0 0l0 -720.0z" clip-rule="nonzero"/></clipPath><g clip-path="url(#p.0)"><path fill="#000000" fill-opacity="0.0" d="m0 0l960.0 0l0 720.0l-960.0 0z" fill-rule="evenodd"/><path fill="#ffffff" d="m74.58793 97.419945l837.19684 0l0 526.6772l-837.19684 0z" fill-rule="evenodd"/><path stroke="#000000" stroke-width="1.0" stroke-linejoin="round" stroke-linecap="butt" d="m74.58793 97.419945l837.19684 0l0 526.6772l-837.19684 0z" fill-rule="evenodd"/><path fill="#cfe2f3" d="m173.12599 653.0289l58.59842 -77.63782l58.598434 77.63782z" fill-rule="evenodd"/><path stroke="#000000" stroke-width="1.0" stroke-linejoin="round" stroke-linecap="butt" d="m173.12599 653.0289l58.59842 -77.63782l58.598434 77.63782z" fill-rule="evenodd"/><path fill="#000000" d="m221.05254 633.26886l8.328125 -11.859375l-7.703125 -10.953125l4.828125 0l3.5 5.34375q0.984375 1.53125 1.59375 2.5625q0.9375 -1.421875 1.734375 -2.515625l3.84375 -5.390625l4.625 0l-7.890625 10.734375l8.484375 12.078125l-4.734375 0l-4.6875 -7.09375l-1.25 -1.90625l-6.0 9.0l-4.671875 0z" fill-rule="nonzero"/><path fill="#cfe2f3" d="m347.43307 653.0289l58.59842 -77.63782l58.59842 77.63782z" fill-rule="evenodd"/><path stroke="#000000" stroke-width="1.0" stroke-linejoin="round" stroke-linecap="butt" d="m347.43307 653.0289l58.59842 -77.63782l58.59842 77.63782z" fill-rule="evenodd"/><path fill="#000000" d="m390.61157 633.26886l0 -22.8125l3.453125 0l0 3.203125q1.078125 -1.6875 2.859375 -2.703125q1.78125 -1.015625 4.0625 -1.015625q2.53125 0 4.15625 1.046875q1.625 1.046875 2.28125 2.9375q2.71875 -3.984375 7.046875 -3.984375q3.40625 0 5.21875 1.875q1.828125 1.875 1.828125 5.796875l0 15.65625l-3.84375 0l0 -14.375q0 -2.3125 -0.375 -3.328125q-0.375 -1.03125 -1.359375 -1.65625q-0.984375 -0.625 -2.328125 -0.625q-2.40625 0 -4.0 1.609375q-1.578125 1.59375 -1.578125 5.125l0 13.25l-3.875 0l0 -14.828125q0 -2.578125 -0.953125 -3.859375q-0.9375 -1.296875 -3.078125 -1.296875q-1.640625 0 -3.03125 0.859375q-1.375 0.859375 -2.0 2.515625q-0.625 1.65625 -0.625 4.765625l0 11.84375l-3.859375 0z" fill-rule="nonzero"/><path fill="#cfe2f3" d="m521.7402 653.0289l58.59839 -77.63782l58.59845 77.63782z" fill-rule="evenodd"/><path stroke="#000000" stroke-width="1.0" stroke-linejoin="round" stroke-linecap="butt" d="m521.7402 653.0289l58.59839 -77.63782l58.59845 77.63782z" fill-rule="evenodd"/><path fill="#000000" d="m572.07294 642.0501l-0.4375 -3.625q1.265625 0.34375 2.21875 0.34375q1.28125 0 2.046875 -0.4375q0.78125 -0.421875 1.28125 -1.1875q0.359375 -0.59375 1.1875 -2.890625q0.09375 -0.3125 0.34375 -0.9375l-8.671875 -22.859375l4.171875 0l4.75 13.203125q0.921875 2.515625 1.65625 5.296875q0.671875 -2.671875 1.59375 -5.203125l4.875 -13.296875l3.859375 0l-8.671875 23.203125q-1.40625 3.75 -2.171875 5.171875q-1.03125 1.921875 -2.375 2.8125q-1.328125 0.890625 -3.171875 0.890625q-1.109375 0 -2.484375 -0.484375z" fill-rule="nonzero"/><path fill="#cfe2f3" d="m696.04724 653.0289l58.59845 -77.63782l58.59839 77.63782z" fill-rule="evenodd"/><path stroke="#000000" stroke-width="1.0" stroke-linejoin="round" stroke-linecap="butt" d="m696.04724 653.0289l58.59845 -77.63782l58.59839 77.63782z" fill-rule="evenodd"/><path fill="#000000" d="m745.3166 633.26886l0 -22.8125l3.46875 0l0 3.234375q2.515625 -3.75 7.265625 -3.75q2.0625 0 3.796875 0.75q1.734375 0.734375 2.59375 1.9375q0.859375 1.203125 1.203125 2.84375q0.203125 1.078125 0.203125 3.765625l0 14.03125l-3.859375 0l0 -13.875q0 -2.375 -0.453125 -3.53125q-0.453125 -1.171875 -1.609375 -1.875q-1.140625 -0.703125 -2.6875 -0.703125q-2.46875 0 -4.265625 1.578125q-1.796875 1.5625 -1.796875 5.9375l0 12.46875l-3.859375 0z" fill-rule="nonzero"/><path fill="#cfe2f3" d="m434.5866 137.78215l58.59842 -77.637794l58.59842 77.637794z" fill-rule="evenodd"/><path stroke="#000000" stroke-width="1.0" stroke-linejoin="round" stroke-linecap="butt" d="m434.5866 137.78215l58.59842 -77.637794l58.59842 77.637794z" fill-rule="evenodd"/><path fill="#000000" d="m483.0444 118.02215l0 -3.140625l14.53125 -16.671875q-2.484375 0.125 -4.375 0.125l-9.296875 0l0 -3.125l18.65625 0l0 2.546875l-12.359375 14.484375l-2.390625 2.640625q2.609375 -0.1875 4.875 -0.1875l10.5625 0l0 3.328125l-20.203125 0z" fill-rule="nonzero"/><path fill="#8e7cc3" d="m237.46194 417.08136l164.40945 0l0 85.25986l-164.40945 0z" fill-rule="evenodd"/><path stroke="#000000" stroke-width="1.0" stroke-linejoin="round" stroke-linecap="butt" d="m237.46194 417.08136l164.40945 0l0 85.25986l-164.40945 0z" fill-rule="evenodd"/><path fill="#000000" d="m310.96194 447.7394l1.1875 -3.6875q4.140625 1.453125 6.015625 2.515625q-0.484375 -4.703125 -0.515625 -6.484375l3.78125 0q-0.078125 2.578125 -0.609375 6.46875q2.6875 -1.359375 6.15625 -2.5l1.1875 3.6875q-3.296875 1.09375 -6.484375 1.46875q1.59375 1.375 4.484375 4.90625l-3.125 2.21875q-1.515625 -2.0625 -3.5625 -5.59375q-1.9375 3.671875 -3.390625 5.59375l-3.078125 -2.21875q3.03125 -3.71875 4.328125 -4.90625q-3.359375 -0.65625 -6.375 -1.46875z" fill-rule="nonzero"/><path fill="#cfe2f3" d="m258.1882 519.06036l23.795258 -32.724396l23.795288 32.724396z" fill-rule="evenodd"/><path stroke="#000000" stroke-width="1.0" stroke-linejoin="round" stroke-linecap="butt" d="m258.1882 519.06036l23.795258 -32.724396l23.795288 32.724396z" fill-rule="evenodd"/><path fill="#cfe2f3" d="m333.55304 519.06036l23.795258 -32.724396l23.795288 32.724396z" fill-rule="evenodd"/><path stroke="#000000" stroke-width="1.0" stroke-linejoin="round" stroke-linecap="butt" d="m333.55304 519.06036l23.795258 -32.724396l23.795288 32.724396z" fill-rule="evenodd"/><path fill="#cfe2f3" d="m295.8706 428.50656l23.795288 -32.724396l23.795258 32.724396z" fill-rule="evenodd"/><path stroke="#000000" stroke-width="1.0" stroke-linejoin="round" stroke-linecap="butt" d="m295.8706 428.50656l23.795288 -32.724396l23.795258 32.724396z" fill-rule="evenodd"/><path fill="#8e7cc3" d="m585.2992 419.3714l164.40948 0l0 85.25983l-164.40948 0z" fill-rule="evenodd"/><path stroke="#000000" stroke-width="1.0" stroke-linejoin="round" stroke-linecap="butt" d="m585.2992 419.3714l164.40948 0l0 85.25983l-164.40948 0z" fill-rule="evenodd"/><path fill="#000000" d="m658.7992 450.02942l1.1875 -3.6875q4.140625 1.453125 6.015625 2.515625q-0.484375 -4.703125 -0.515625 -6.484375l3.78125 0q-0.078125 2.578125 -0.609375 6.46875q2.6875 -1.359375 6.15625 -2.5l1.1875 3.6875q-3.296875 1.09375 -6.484375 1.46875q1.59375 1.375 4.484375 4.90625l-3.125 2.21875q-1.515625 -2.0625 -3.5625 -5.59375q-1.9375 3.671875 -3.390625 5.59375l-3.078125 -2.21875q3.03125 -3.71875 4.328125 -4.90625q-3.359375 -0.65625 -6.375 -1.46875z" fill-rule="nonzero"/><path fill="#cfe2f3" d="m606.02545 521.3504l23.795288 -32.724426l23.795288 32.724426z" fill-rule="evenodd"/><path stroke="#000000" stroke-width="1.0" stroke-linejoin="round" stroke-linecap="butt" d="m606.02545 521.3504l23.795288 -32.724426l23.795288 32.724426z" fill-rule="evenodd"/><path fill="#cfe2f3" d="m681.3903 521.3504l23.795227 -32.724426l23.795288 32.724426z" fill-rule="evenodd"/><path stroke="#000000" stroke-width="1.0" stroke-linejoin="round" stroke-linecap="butt" d="m681.3903 521.3504l23.795227 -32.724426l23.795288 32.724426z" fill-rule="evenodd"/><path fill="#cfe2f3" d="m643.7079 430.7966l23.795288 -32.724426l23.795288 32.724426z" fill-rule="evenodd"/><path stroke="#000000" stroke-width="1.0" stroke-linejoin="round" stroke-linecap="butt" d="m643.7079 430.7966l23.795288 -32.724426l23.795288 32.724426z" fill-rule="evenodd"/><path fill="#f6b26b" d="m410.98163 239.01837l164.40942 0l0 85.25986l-164.40942 0z" fill-rule="evenodd"/><path stroke="#000000" stroke-width="1.0" stroke-linejoin="round" stroke-linecap="butt" d="m410.98163 239.01837l164.40942 0l0 85.25986l-164.40942 0z" fill-rule="evenodd"/><path fill="#000000" d="m491.3543 292.29456l0 -8.640625l-8.5625 0l0 -3.609375l8.5625 0l0 -8.5625l3.65625 0l0 8.5625l8.578125 0l0 3.609375l-8.578125 0l0 8.640625l-3.65625 0z" fill-rule="nonzero"/><path fill="#cfe2f3" d="m431.7079 340.99738l23.795258 -32.724396l23.795288 32.724396z" fill-rule="evenodd"/><path stroke="#000000" stroke-width="1.0" stroke-linejoin="round" stroke-linecap="butt" d="m431.7079 340.99738l23.795258 -32.724396l23.795288 32.724396z" fill-rule="evenodd"/><path fill="#cfe2f3" d="m507.07272 340.99738l23.795258 -32.724396l23.795288 32.724396z" fill-rule="evenodd"/><path stroke="#000000" stroke-width="1.0" stroke-linejoin="round" stroke-linecap="butt" d="m507.07272 340.99738l23.795258 -32.724396l23.795288 32.724396z" fill-rule="evenodd"/><path fill="#cfe2f3" d="m469.3903 250.44357l23.795288 -32.72441l23.795258 32.72441z" fill-rule="evenodd"/><path stroke="#000000" stroke-width="1.0" stroke-linejoin="round" stroke-linecap="butt" d="m469.3903 250.44357l23.795288 -32.72441l23.795258 32.72441z" fill-rule="evenodd"/><path fill="#000000" fill-opacity="0.0" d="m231.72441 575.39105l50.267715 -56.31494" fill-rule="evenodd"/><path stroke="#000000" stroke-width="1.0" stroke-linejoin="round" stroke-linecap="butt" d="m231.72441 575.39105l50.267715 -56.31494" fill-rule="evenodd"/><path fill="#000000" fill-opacity="0.0" d="m406.0315 575.39105l-48.6929 -56.31494" fill-rule="evenodd"/><path stroke="#000000" stroke-width="1.0" stroke-linejoin="round" stroke-linecap="butt" d="m406.0315 575.39105l-48.6929 -56.31494" fill-rule="evenodd"/><path fill="#000000" fill-opacity="0.0" d="m580.33856 575.39105l49.480347 -54.04724" fill-rule="evenodd"/><path stroke="#000000" stroke-width="1.0" stroke-linejoin="round" stroke-linecap="butt" d="m580.33856 575.39105l49.480347 -54.04724" fill-rule="evenodd"/><path fill="#000000" fill-opacity="0.0" d="m754.6457 575.39105l-49.448853 -54.04724" fill-rule="evenodd"/><path stroke="#000000" stroke-width="1.0" stroke-linejoin="round" stroke-linecap="butt" d="m754.6457 575.39105l-49.448853 -54.04724" fill-rule="evenodd"/><path fill="#000000" fill-opacity="0.0" d="m667.5032 398.07217l-136.62994 -57.07086" fill-rule="evenodd"/><path stroke="#000000" stroke-width="1.0" stroke-linejoin="round" stroke-linecap="butt" d="m667.5032 398.07217l-136.62994 -57.07086" fill-rule="evenodd"/><path fill="#000000" fill-opacity="0.0" d="m319.6659 395.78217l135.8425 -54.771667" fill-rule="evenodd"/><path stroke="#000000" stroke-width="1.0" stroke-linejoin="round" stroke-linecap="butt" d="m319.6659 395.78217l135.8425 -54.771667" fill-rule="evenodd"/><path fill="#000000" fill-opacity="0.0" d="m493.18558 217.71916l0 -79.93701" fill-rule="evenodd"/><path stroke="#000000" stroke-width="1.0" stroke-linejoin="round" stroke-linecap="butt" d="m493.18558 217.71916l0 -79.93701" fill-rule="evenodd"/></g></svg>